<?xml version="1.0" standalone="no"?>
<!DOCTYPE svg PUBLIC "-//W3C//DTD SVG 1.1//EN" "http://www.w3.org/Graphics/SVG/1.1/DTD/svg11.dtd" >
<svg xmlns="http://www.w3.org/2000/svg">
<metadata>Generated by IcoMoon</metadata>
<defs>
<font id="icomoon" horiz-adv-x="1024">
<font-face units-per-em="1024" ascent="960" descent="-64" />
<missing-glyph horiz-adv-x="1024" />
<glyph unicode="&#x20;" horiz-adv-x="512" d="" />
<glyph unicode="&#xe600;" glyph-name="class" d="M1023.616 670.016c0 0.128 0 0.256 0 0.384 0 6.4-1.856 12.8-5.76 18.432-10.112 14.464-30.080 17.984-44.544 7.872l-270.656-98.176v114.688c0 48.064-38.976 87.040-87.040 87.040h-528.256c-48.064 0-87.040-38.976-87.040-87.040v-528.832c0-48.064 38.976-87.040 87.040-87.040h528.256c48.064 0 87.040 38.976 87.040 87.040v110.4l268.096-96.64c5.632-4.8 12.864-7.68 20.8-7.68 17.6 0 31.872 14.144 32.064 31.68 0 0.064 0 0.128 0 0.192s0 0.128 0 0.192v447.488zM639.168 184.32c0-12.992-10.56-23.552-23.552-23.552h-528.256c-12.992 0-23.552 10.56-23.552 23.552v528.832c0 12.992 10.56 23.552 23.552 23.552h528.256c12.992 0 23.552-10.56 23.552-23.552l0.384-168.512c-0.512-7.040 1.344-14.272 5.696-20.48 10.112-14.464 30.080-17.984 44.544-7.872l269.632 97.536v-334.528l-269.632 97.536c-14.464 10.112-34.432 6.592-44.544-7.872-4.352-6.208-6.208-13.44-5.696-20.48l-0.384-164.224z" />
<glyph unicode="&#xe601;" glyph-name="comprehensive" d="M936.96 960h-849.984c-48.064 0-87.040-38.976-87.040-87.040v-849.984c0-48.064 38.976-87.040 87.040-87.040h849.984c48.064 0 87.040 38.976 87.040 87.040v849.984c0 48.064-38.976 87.040-87.040 87.040zM960.512 23.040c0-12.992-10.56-23.552-23.552-23.552h-849.984c-12.992 0-23.552 10.56-23.552 23.552v849.984c0 12.992 10.56 23.552 23.552 23.552h849.984c12.992 0 23.552-10.56 23.552-23.552v-849.984zM800 256h-576c-17.664 0-32-14.336-32-32s14.336-32 32-32h576c17.664 0 32 14.336 32 32s-14.336 32-32 32zM224.256 384h447.552c17.856 0 32.256 14.464 32.256 32.256s-14.464 32.256-32.256 32.256h-447.552c-17.856 0-32.256-14.464-32.256-32.256s14.464-32.256 32.256-32.256zM320.128 640c0-35.328-28.672-64-64-64s-64 28.672-64 64c0 35.328 28.672 64 64 64s64-28.672 64-64zM576 640c0-35.328-28.672-64-64-64s-64 28.672-64 64c0 35.328 28.672 64 64 64s64-28.672 64-64zM832 640c0-35.328-28.672-64-64-64s-64 28.672-64 64c0 35.328 28.672 64 64 64s64-28.672 64-64z" />
<glyph unicode="&#xe602;" glyph-name="correcting" d="M993.088 874.944l-53.376 53.44c-20.032 20.032-45.888 30.272-70.784 30.272-21.568 0-42.432-7.68-58.048-23.296l-751.232-749.696-58.048-214.464c-2.56-9.28 0.128-19.136 6.848-26.048 5.12-5.056 11.968-7.808 18.944-7.808 2.368 0 4.672 0.32 7.040 0.96l214.336 58.24 751.232 749.568c33.6 33.6 30.528 91.392-6.912 128.768zM154.624 193.728l580.544 579.328 102.336-102.336-580.544-579.264-102.272 102.272zM112.384 145.472l96.192-96.192-131.968-35.84 35.776 132.032zM956.608 789.568l-73.856-73.664-102.336 102.336 73.792 73.664c4.416 4.416 10.368 5.312 14.592 5.312 9.6 0 19.584-4.48 27.392-12.224l53.44-53.504c7.744-7.744 12.224-17.664 12.224-27.264 0-4.224-0.896-10.24-5.312-14.592z" />
<glyph unicode="&#xe603;" glyph-name="download" d="M992 510.144c-17.664 0-32-14.336-32-32v-416.96h-896v416c0 17.664-14.336 32-32 32s-32-14.336-32-32v-448c0-17.664 14.336-32 32-32h959.936c0 0 0 0 0 0s0 0 0 0c17.664 0 32 14.336 32 32v448.96c0 17.664-14.336 32-32 32zM486.656 202.816c0.064-0.064 0.064-0.064 0.128-0.128s0.064-0.064 0.064-0.064c6.4-6.4 14.848-9.536 23.232-9.344 0.192 0 0.384 0 0.576 0 11.392 0 21.44 6.016 27.072 14.976l379.072 379.072c12.48 12.48 12.48 32.768 0 45.248s-32.768 12.48-45.248 0l-328.896-328.896v561.6c0 17.664-14.336 32-32 32s-32-14.336-32-32v-563.136l-328.448 328.448c-12.608 12.608-33.024 12.608-45.632 0s-12.608-33.024 0-45.632l382.144-382.144z" />
<glyph unicode="&#xe604;" glyph-name="Fill" d="M845.952 894.464c29.952 0 58.112-11.52 79.296-32.512s32.832-48.832 32.832-78.528c0-26.368-9.472-51.904-26.688-71.936-17.088-19.84-40.64-33.152-66.304-37.504 0 0-82.752-14.080-98.496-16.64s-11.392-16.192-6.912-20.608 70.848-70.144 70.848-70.144l94.336-93.44c21.376-21.184 21.376-55.616 0-76.8l-382.784-379.008c-10.368-10.24-24.128-15.936-38.784-15.936s-28.416 5.632-38.784 15.936l-382.784 379.008c-21.376 21.184-21.376 55.616 0 76.8 0 0 17.344 17.216 36.352 36.032 38.144-81.472 121.6-138.112 218.112-138.112 132.48 0 240.256 106.752 240.256 237.888 0 95.552-57.216 178.176-139.52 215.936l27.52 27.264c10.368 10.24 24.128 15.936 38.784 15.936s28.416-5.632 38.784-15.936l84.864-84.032c0 0 53.12-52.736 62.656-62.016s26.816-13.76 29.248 0 16.576 96.256 16.576 96.256c4.416 25.472 17.856 48.768 37.888 65.664 20.224 17.024 46.016 26.432 72.64 26.432zM845.952 957.888c-87.104 0-159.488-62.656-173.696-144.896l-84.864 84.032c-23.232 22.976-53.632 34.496-84.096 34.496s-60.864-11.52-84.096-34.496c0 0-21.696-21.504-63.616-62.976s-31.488-50.624-19.392-50.624c97.28 0 176.192-78.080 176.192-174.464s-78.912-174.464-176.192-174.464c-97.28 0-176.192 78.080-176.192 174.464 0 6.144-2.496 11.776-9.024 11.776-6.208 0-16.064-5.12-30.848-19.776-8.512-8.448-83.712-82.88-83.712-82.88-46.464-46.016-46.464-120.512 0-166.528l382.784-379.008c23.232-22.976 53.632-34.496 84.096-34.496s60.864 11.52 84.096 34.496l382.784 379.008c46.464 46.016 46.464 120.512 0 166.528l-94.336 93.44c83.072 14.016 146.368 85.696 146.368 171.968 0 96.32-78.912 174.464-176.192 174.464v0z" />
<glyph unicode="&#xe605;" glyph-name="listening" d="M1023.424 292.096v155.392c0 0.256 0 0.512 0 0.768v0.64c-0.768 282.944-229.44 512.064-511.424 512.064s-510.656-229.12-511.424-512.064v0-156.8c0-0.128 0-0.256 0-0.384v-296.384c0-32.064 25.984-57.984 57.984-57.984h139.968c32.064 0 57.984 25.984 57.984 57.984v296.384c0 32.064-25.984 57.984-57.984 57.984h-136.576v97.728c0 61.12 11.904 120.32 35.392 176.064 22.656 53.824 55.168 102.208 96.512 143.744s89.472 74.112 143.040 96.896c55.424 23.552 114.304 35.456 175.104 35.456s119.68-11.904 175.104-35.456c53.568-22.784 101.696-55.36 143.040-96.896s73.856-89.92 96.512-143.744c23.488-55.744 35.392-114.944 35.392-176.064v-97.728h-136.576c-32.064 0-57.984-25.984-57.984-57.984v-296.384c0-32.064 25.984-57.984 57.984-57.984h139.968c32.064 0 57.984 25.984 57.984 57.984v296.384c0 0.128 0 0.256 0 0.384v0zM195.136-1.216h-133.184v289.6h133.184v-289.6zM962.048-1.216h-133.184v289.6h133.184v-289.6z" />
<glyph unicode="&#xe606;" glyph-name="logic" d="M545.536 896v-480h-480c0-265.088 214.912-480 480-480s480 214.912 480 480c0 265.088-214.912 480-480 480zM840.064 121.472c-38.272-38.272-82.816-68.352-132.416-89.28-51.328-21.696-105.856-32.704-162.112-32.704s-110.784 11.008-162.112 32.704c-49.6 20.992-94.144 51.008-132.416 89.28s-68.288 82.816-89.28 132.416c-13.44 31.744-22.784 64.768-27.968 98.688h475.2v475.2c33.92-5.184 66.88-14.528 98.688-27.968 49.6-20.992 94.144-51.008 132.416-89.28s68.352-82.816 89.28-132.416c21.696-51.328 32.704-105.856 32.704-162.112s-11.008-110.784-32.704-162.112c-20.992-49.6-51.008-94.144-89.28-132.416zM478.4 960c-265.088 0-480-214.912-480-480h480v480zM414.976 543.424h-348.352c5.184 33.92 14.528 66.88 27.968 98.688 20.992 49.6 51.008 94.144 89.28 132.416s82.816 68.288 132.416 89.28c31.744 13.44 64.768 22.784 98.688 27.968v-348.352z" />
<glyph unicode="&#xe607;" glyph-name="Machine" d="M817.6 959.424h-496.192c-102.528 0-185.664-83.136-185.664-185.664v-741.248c0-52.992 43.008-96 96-96h585.856c48.064 0 86.976 38.976 86.976 87.040v848.832c0 48.064-38.976 87.040-87.040 87.040zM481.728 659.648c-6.848 6.848-16 9.92-24.896 9.216-8.896 0.64-18.048-2.432-24.896-9.216l-40.192-40.192v276.544h129.024v-275.456l-39.104 39.104zM841.152 23.552c0-12.992-10.56-23.552-23.552-23.552h-585.792c-17.92 0-32.576 14.592-32.576 32.576h1.216v8.832c3.84 13.696 16.448 23.744 31.36 23.744h609.408v-41.536zM841.152 128.576h-609.408c-10.944 0-21.504-1.856-31.36-5.248v68.096h-1.216v582.336c0 32.64 12.736 63.36 35.776 86.4s53.76 35.776 86.4 35.776h6.912v-352.768h0.512c0-8.128 3.136-16.256 9.344-22.464 12.416-12.416 32.64-12.416 45.056 0l73.6 73.6 73.6-73.6c12.416-12.416 32.64-12.416 45.056 0 7.744 7.744 10.688 18.56 8.768 28.608v346.624h233.28c12.992 0 23.552-10.56 23.552-23.552v-743.872z" />
<glyph unicode="&#xe608;" glyph-name="mathematics" d="M936.96 960h-849.984c-48.064 0-87.040-38.976-87.040-87.040v-849.984c0-48.064 38.976-87.040 87.040-87.040h849.984c48.064 0 87.040 38.976 87.040 87.040v849.984c0 48.064-38.976 87.040-87.040 87.040zM960.512 23.040c0-12.992-10.56-23.552-23.552-23.552h-849.984c-12.992 0-23.552 10.56-23.552 23.552v849.984c0 12.992 10.56 23.552 23.552 23.552h849.984c12.992 0 23.552-10.56 23.552-23.552v-849.984zM416 704h-64v64c0 17.664-14.336 32-32 32s-32-14.336-32-32v-64h-64c-17.664 0-32-14.336-32-32s14.336-32 32-32h64v-64c0-17.664 14.336-32 32-32s32 14.336 32 32v64h64c17.664 0 32 14.336 32 32s-14.336 32-32 32zM800 704h-192c-17.664 0-32-14.336-32-32s14.336-32 32-32h192c17.664 0 32 14.336 32 32s-14.336 32-32 32zM800 224h-192c-17.664 0-32-14.336-32-32s14.336-32 32-32h192c17.664 0 32 14.336 32 32s-14.336 32-32 32zM800 352h-192c-17.664 0-32-14.336-32-32s14.336-32 32-32h192c17.664 0 32 14.336 32 32s-14.336 32-32 32zM365.248 256l45.248 45.248c12.48 12.48 12.48 32.768 0 45.248s-32.768 12.48-45.248 0l-45.248-45.248-45.248 45.248c-12.48 12.48-32.768 12.48-45.248 0s-12.48-32.768 0-45.248l45.248-45.248-45.248-45.248c-12.48-12.48-12.48-32.768 0-45.248s32.768-12.48 45.248 0l45.248 45.248 45.248-45.248c12.48-12.48 32.768-12.48 45.248 0s12.48 32.768 0 45.248l-45.248 45.248z" />
<glyph unicode="&#xe609;" glyph-name="new" d="M511.936 891.968c10.368 0 19.776-5.824 24-14.848l111.168-237.504c6.4-13.696 19.072-23.296 33.664-25.536l255.744-39.168c9.6-1.472 17.856-8.256 20.864-17.152 2.88-8.64 0.704-18.112-5.824-24.768l-187.392-192.64c-10.24-10.496-14.848-25.472-12.48-40.128l43.456-267.136c1.536-9.28-2.496-18.56-10.176-24-4.672-3.328-10.112-4.992-15.808-4.992-4.608 0-9.152 1.152-13.056 3.328l-222.976 123.648c-6.592 3.584-13.888 5.504-21.184 5.504s-14.528-1.856-21.184-5.504l-222.72-123.52c-4.096-2.24-8.704-3.392-13.312-3.392-5.568 0-11.136 1.728-15.488 4.864-7.936 5.632-11.968 14.912-10.432 24.256l43.456 267.072c2.368 14.656-2.304 29.632-12.48 40.128l-187.392 192.704c-6.464 6.592-8.64 16.064-5.76 24.576 3.008 9.024 11.2 15.808 20.928 17.216l255.68 39.168c14.656 2.24 27.264 11.776 33.664 25.536l111.104 237.504c4.224 9.024 13.696 14.912 24 14.912zM511.936 959.36c-28.672 0-54.784-16.576-67.008-42.624l-116.032-247.936-266.88-40.832c-27.392-4.16-50.24-23.488-59.008-49.792-8.832-26.432-2.176-55.552 17.216-75.392l195.584-201.088-45.376-278.784c-4.608-28.16 7.168-56.256 30.4-72.768 12.736-8.96 27.712-13.568 42.688-13.568 12.288 0 24.64 3.136 35.84 9.216l232.64 128.96 232.704-128.96c11.2-6.080 23.488-9.216 35.776-9.216 14.976 0 29.952 4.608 42.688 13.568 23.168 16.512 34.944 44.608 30.4 72.768l-45.376 278.784 195.584 201.088c19.328 19.84 26.048 48.96 17.216 75.392-8.832 26.304-31.616 45.632-59.072 49.792l-266.88 40.832-116.032 247.936c-12.16 26.048-38.336 42.624-67.072 42.624v0 0z" />
<glyph unicode="&#xe60a;" glyph-name="reading" d="M958.592 959.168c-186.944 0-316.416-64-445.824-128-126.272 64-254.784 128.768-445.76 128.768-34.816 0-67.008-32-67.008-64.768 0 0 0-685.312 0-768 0-46.592 33.92-67.008 67.008-67.008 192.384 0 317.824-60.992 447.296-124.992 129.92 64.256 258.624 126.336 448.704 126.336 36.416 0 62.528 30.016 62.528 65.664 0 59.52 0 711.040 0 768 0 27.584-35.648 64-66.944 64zM66.624 127.68c0 129.6 0 767.488 0 767.488 144.384-4.096 362.048-76.416 412.416-129.664 0-99.584 1.728-720.384 1.728-729.984-84.48 41.6-246.592 94.848-414.144 92.096zM961.664 127.68c-167.552 2.752-329.664-50.496-414.144-92.096 0 9.536 1.728 630.336 1.728 729.984 50.432 53.184 268.032 125.504 412.416 129.664 0 0 0-637.888 0-767.488z" />
<glyph unicode="&#xe60b;" glyph-name="share" d="M321.984 533.888c-55.68-88.384-73.088-177.792-73.792-181.504-2.048-10.944 3.2-22.016 12.928-27.52s21.888-4.224 30.272 3.2c1.28 1.216 88.64 193.664 283.264 203.008v-123.968c0-10.752 6.592-20.416 16.576-24.384 3.136-1.216 6.4-1.792 9.6-1.792 7.104 0 14.144 2.88 19.136 8.32l267.264 198.208c9.344 9.984 9.408 25.536 0.128 35.648l-266.24 201.152c-7.36 7.936-18.752 10.56-28.8 6.656s-16.64-13.632-16.64-24.384v-101.248c-118.080-22.912-183.36-59.904-253.632-171.392zM863.488 383.36c-17.664 0-32-14.336-32-32v-224h-640.576v159.936c0 0 0 0 0 0.064v480h224.576c17.664 0 32 14.336 32 32s-14.336 32-32 32h-256.576c-13.056 0-24.256-7.808-29.248-19.008-0.704-1.6-1.28-3.264-1.728-4.992-0.128-0.512-0.256-1.024-0.384-1.536-0.192-1.024-0.384-2.112-0.512-3.2s-0.192-2.176-0.192-3.264v-704c0-17.664 14.336-32 32-32 0.064 0 0.192 0 0.256 0s0.192 0 0.256 0h704c17.664 0 32 14.336 32 32v256c0 17.664-14.336 32-32 32z" />
<glyph unicode="&#xe60c;" glyph-name="speaking" d="M470.144 897.024c56.064 0 110.336-8.384 161.216-24.832 48.448-15.68 91.712-37.952 128.64-66.24 71.68-54.848 111.168-126.272 111.168-201.024s-39.488-146.176-111.168-201.024c-36.928-28.288-80.192-50.56-128.64-66.24-50.944-16.512-105.216-24.832-161.216-24.832-20.992 0-42.048 1.216-62.656 3.584l-19.584 2.24-17.408-9.216c-35.904-19.008-66.88-40.32-96.768-60.864-21.056-14.464-41.536-28.544-62.72-41.088 21.952 39.68 34.24 74.176 38.656 107.2l5.632 41.728-36.224 21.376c-46.784 27.648-85.248 63.040-111.104 102.4-25.792 39.232-38.848 81.152-38.848 124.672 0 74.752 39.488 146.176 111.168 201.024 36.928 28.288 80.192 50.56 128.64 66.24 50.944 16.512 105.216 24.832 161.216 24.832zM470.144 960.448c-256.512 0-464.448-159.168-464.448-355.52 0-114.688 70.976-216.704 181.12-281.728-5.184-38.656-26.88-84.288-68.928-144.32-13.504-19.264-50.752-48.512-36.928-66.496 3.648-4.16 12.16-5.824 22.976-5.824 24.704 0 61.376 8.64 79.36 16.064 82.56 34.048 139.52 89.728 216.96 130.816 22.784-2.624 46.144-4.032 69.888-4.032 256.512 0 464.448 159.168 464.448 355.52s-207.936 355.52-464.448 355.52v0zM860.864 130.56c99.2 58.496 163.072 150.4 163.072 253.632 0 44.48-11.84 86.848-33.28 125.312-7.552-28.032-18.624-55.424-33.28-81.92-0.512-0.896-0.96-1.728-1.472-2.624 3.008-13.376 4.544-27.008 4.544-40.768 0-37.888-11.392-74.496-33.92-108.736-22.784-34.624-56.64-65.856-97.92-90.24l-36.224-21.376 5.632-41.728c3.328-24.64 11.328-50.112 24.896-78.144-12.224 7.872-24.32 16.192-36.672 24.704-27.072 18.624-55.104 37.824-87.744 55.168l-17.408 9.216-19.584-2.24c-18.304-2.112-37.056-3.2-55.68-3.2-49.792 0-143.616 55.424-161.216 64.192-19.328-11.776-37.952-24.576-57.408-37.888-0.768-0.512-1.536-1.088-2.368-1.6 71.168-43.008 123.2-88.128 220.928-88.128 21.376 0 42.432 1.216 62.912 3.584 69.696-36.992 120.96-87.104 195.328-117.76 16.128-6.656 49.152-14.464 71.424-14.464 9.728 0 17.408 1.472 20.672 5.248 12.48 16.192-21.12 42.496-33.28 59.84-37.824 54.080-57.344 95.168-62.016 129.92z" />
<glyph unicode="&#xe60d;" glyph-name="teacher" d="M1015.936 558.528l-103.296 134.080 45.888 161.728c4.544 16-0.192 33.216-12.416 44.672-12.16 11.328-29.696 15.040-45.312 9.472l-152.384-54.4-131.776 97.728c-13.824 10.24-32.32 11.584-47.488 3.392s-24.192-24.384-23.232-41.6l9.408-163.776-129.088-97.536c-13.248-9.984-19.776-26.688-16.96-43.072 2.88-16.448 14.656-29.888 30.528-34.88l118.592-37.248-550.464-547.52c-12.416-12.416-12.416-32.448 0-44.864s32.448-12.416 44.864 0l556.352 553.408 46.464-134.080c5.568-16.128 19.84-27.648 36.736-29.696 9.28-1.088 18.432 0.768 26.368 4.992 6.464 3.52 12.096 8.64 16.32 15.040l85.952 134.272 159.424-1.792c7.616-0.064 15.040 1.856 21.504 5.312 7.936 4.288 14.464 10.944 18.624 19.264 7.552 15.296 5.76 33.472-4.672 47.040zM951.68 550.016c-1.344-2.688-3.456-4.864-6.080-6.272-2.112-1.152-4.544-1.728-6.912-1.728l-134.592 1.536c-3.968 0-7.808-0.96-11.2-2.752s-6.272-4.48-8.448-7.872l-72.512-113.216c-1.344-2.048-3.2-3.776-5.312-4.928-2.56-1.408-5.632-1.984-8.384-1.664-5.12 0.64-9.344 3.968-10.944 8.64l-46.784 134.976c-2.56 7.424-8.512 13.184-15.872 15.488l-135.36 42.496c-4.672 1.472-8.064 5.312-8.832 9.984-0.832 4.928 1.28 10.112 5.376 13.248l108.928 82.304c6.272 4.736 9.728 12.352 9.28 20.288l-7.936 138.176c-0.32 5.248 2.624 10.368 7.424 12.928s10.688 2.24 14.848-0.896l111.232-82.496c6.4-4.736 14.72-6.016 22.016-3.392l128.64 45.952c4.864 1.728 10.368 0.64 13.952-2.752 3.52-3.264 4.864-8.256 3.52-12.992l-38.72-136.448c-2.112-7.424-0.512-15.552 4.288-21.76l87.168-113.216c3.008-3.968 3.52-9.216 1.28-13.696z" />
<glyph unicode="&#xe60e;" glyph-name="Title" d="M895.488 655.36c0.064 8.128-2.944 16.32-9.216 22.528l-272.32 272.32c-6.464 6.464-14.976 9.472-23.424 9.152-0.384 0-0.768 0-1.088 0h-373.888c-48.064 0-87.040-38.976-87.040-87.040v-848.832c0-48.064 38.976-87.040 87.040-87.040h592.96c48.064 0 87.040 38.976 87.040 87.040v631.424c0 0.128 0 0.192 0 0.32zM576.512 896h2.88l252.672-252.672c0-1.216 0-2.56 0-3.84h-255.552v256.576zM808.448 0h-592.96c-12.992 0-23.552 10.56-23.552 23.552v848.832c0 12.992 10.56 23.552 23.552 23.552h296.96v-288.576c0-17.664 14.336-32 32-32h287.552v-551.872c0-12.992-10.56-23.552-23.552-23.552z" />
<glyph unicode="&#xe60f;" glyph-name="views" d="M510.592 770.24c58.688 0 118.144-15.040 176.64-44.608 48.512-24.576 96.576-59.136 142.848-102.784 80.448-75.776 127.872-153.344 129.024-155.2 0.256-0.384 0.384-0.64 0.64-1.088 1.664-2.688 3.392-9.024 3.072-16.512-0.32-8.64-2.88-14.272-4.224-16.064-0.448-0.576-0.768-1.024-1.152-1.6-1.28-1.856-56.448-80.384-140.928-157.312-48.64-44.288-97.344-79.296-144.768-104.192-56.192-29.44-110.464-44.416-161.152-44.416s-104.704 14.912-160.576 44.352c-47.104 24.832-95.488 59.84-143.68 104.064-83.712 76.8-138.112 155.2-139.456 157.184-0.512 0.768-0.96 1.408-1.536 2.112-1.344 1.792-3.904 7.36-4.224 15.872-0.256 7.424 1.408 13.696 3.072 16.384 0.384 0.576 0.704 1.152 1.024 1.664 0.448 0.768 45.632 76.544 125.184 152.832 46.080 44.16 94.016 79.168 142.528 104 58.688 30.080 118.4 45.376 177.536 45.376zM510.592 833.472c-301.12 0-497.536-332.48-497.536-332.48-18.88-29.824-17.152-77.312 3.84-105.408 0 0 226.944-332.288 493.696-332.288s496.64 332.288 496.64 332.288c20.8 28.096 22.592 75.584 3.84 105.408 0 0-199.36 332.48-500.48 332.48v0zM510.592 577.984c34.368 0 66.688-13.568 91.008-38.144 24.512-24.768 38.016-57.792 38.016-92.928 0-35.2-13.504-68.288-38.080-93.12-24.32-24.64-56.64-38.208-91.008-38.208-34.496 0-66.88 13.568-91.264 38.208-24.512 24.832-38.016 57.856-38.016 93.12 0 35.136 13.504 68.16 38.016 92.928 24.384 24.64 56.768 38.144 91.328 38.144zM510.592 639.424c-105.536 0-190.72-86.144-190.72-192.448 0-106.432 85.184-192.704 190.72-192.704 105.216 0 190.464 86.272 190.464 192.704 0 106.304-85.248 192.448-190.464 192.448v0z" />
<glyph unicode="&#xe610;" glyph-name="vocabulary" d="M554.24 895.936l343.040-895.872h-93.504l-99.776 265.408h-388.544l-97.28-265.408h-93.504l344.896 895.872h84.672zM343.296 341.12h331.648l-147.84 398.208c-2.944 7.872-6.016 17.088-9.152 27.456s-15.808 10.368-18.944 0c-3.136-10.368-6.208-19.52-9.152-27.456l-146.56-398.208zM554.24 957.312h-84.672c-25.792 0-48.896-15.744-58.048-39.552l-344.896-895.872c-7.296-18.88-4.672-40.064 6.912-56.704s30.72-26.56 51.136-26.56h93.504c26.112 0 49.472 16.192 58.368 40.512l82.432 224.896h301.76l84.736-225.408c9.024-24.064 32.256-40 58.24-40h93.504c20.416 0 39.488 9.92 51.072 26.496s14.208 37.76 6.976 56.64l-343.040 895.872c-9.152 23.872-32.256 39.68-58.112 39.68v0zM432 402.496l76.672 208.32 77.312-208.32h-153.984z" />
<glyph unicode="&#xe611;" glyph-name="wiki" d="M963.264 683.264l-385.984 193.024c-24.896 13.44-44.992 19.712-64.704 19.712-19.904 0-39.424-6.4-63.040-18.304l-384.256-191.36c-76.224-37.888-92.608-86.976 0-130.048v-200.576c-19.136-11.072-32-31.744-32-55.424 0-35.328 28.672-64 64-64s64 28.672 64 64c0 23.68-12.864 44.352-32 55.424v168.576c0 0.064 0 0.064 0 0.128l321.664-160.384c18.752-11.712 39.488-20.096 62.528-20.096 19.136 0 39.872 5.824 62.464 20.352l387.328 195.136c83.904 43.008 72.64 86.976 0 123.84zM934.528 616l-390.144-196.544-2.816-1.856c-10.688-6.848-19.84-10.24-28.032-10.24s-17.664 3.456-28.992 10.496l-2.56 1.6-389.952 194.368c-5.568 2.624-10.176 4.992-13.952 7.168 4.096 2.56 9.152 5.44 15.424 8.512v0 0l384.512 191.488c20.544 10.304 29.568 11.52 34.56 11.52v0c5.184 0 14.464-1.28 34.496-12.096l387.584-193.856c3.648-1.856 6.848-3.584 9.6-5.248-2.816-1.664-6.080-3.456-9.856-5.376zM804.672 344.256v-172.032c0-8.064-4.032-17.024-11.904-26.56-11.264-13.632-29.376-27.008-52.288-38.72-25.728-13.12-57.472-24-91.776-31.424-37.184-8.064-76.864-12.096-117.952-12.096s-80.768 4.096-117.952 12.096c-34.304 7.424-66.048 18.24-91.776 31.424-22.912 11.712-41.024 25.088-52.288 38.72-7.936 9.536-11.904 18.496-11.904 26.56v222.592l-63.424 31.616v-254.848c0.64-94.848 151.424-171.584 337.408-171.584s336.704 76.8 337.408 171.584v0 273.856l-63.424-31.936v-69.248z" />
<glyph unicode="&#xe612;" glyph-name="writing" d="M1014.4 950.528c-12.416 12.416-32.448 12.416-44.864 0l-511.936-448.512c-12.416-12.416-12.416-32.448 0-44.864s32.448-12.416 44.864 0l511.936 448.512c12.416 12.416 12.416 32.448 0 44.864zM352.192 511.808h-191.936c-17.664 0-32-14.336-32-32s14.336-32 32-32h191.936c17.664 0 32 14.336 32 32s-14.336 32-32 32zM128.256 223.744c0-17.344 14.080-31.424 31.424-31.424h385.152c17.344 0 31.424 14.080 31.424 31.424s-14.080 31.424-31.424 31.424h-385.152c-17.344 0-31.424-14.080-31.424-31.424zM800 575.808c-17.536 0-31.744-14.208-31.744-31.744 0-0.064 0-0.192 0-0.256v0-520.64c0-12.992-10.56-23.552-23.552-23.552h-657.408c-12.992 0-23.552 10.56-23.552 23.552v785.408c0 12.992 10.56 23.552 23.552 23.552h584.704c17.536 0 31.744 14.208 31.744 31.744s-14.208 31.744-31.744 31.744h-584.704c-48.064 0-87.040-38.976-87.040-87.040v-785.408c0-48.064 38.976-87.040 87.040-87.040h657.408c48.064 0 87.040 38.976 87.040 87.040v520.896c0 17.536-14.208 31.744-31.744 31.744z" />
<glyph unicode="&#xe613;" glyph-name="bbs" d="M255.936 640h128v-128h-128v128zM447.936 640h128v-128h-128v128zM639.936 640h128v-128h-128v128zM936.96 960h-849.984c-48.064 0-87.040-38.976-87.040-87.040v-593.984c0-48.064 38.976-87.040 87.040-87.040h266.56l350.464-256v256h232.96c48.064 0 87.040 38.976 87.040 87.040v593.984c0 48.064-38.976 87.040-87.040 87.040zM897.088 318.912h-320v-133.056l-182.144 133.056h-268.096v514.24h770.24v-514.24z" />
<glyph unicode="&#xe614;" glyph-name="mall" d="M640 64h128v-128h-128v128zM320 64h128v-128h-128v128zM1024 832h-640l64-128h393.152l-82.304-192h-246.912v-128h320l137.152 320zM384.192 511.296l-190.464 448.704-1.728-0.64v0.64h-192v-128h111.488l144.512-320.704-64-383.296h704v128h-554.56z" />
<glyph unicode="&#xe615;" glyph-name="language" d="M808.512 960h-593.088c-48.064 0-87.040-38.976-87.040-87.040v-849.984c0-48.064 38.976-87.040 87.040-87.040h593.088c48.064 0 87.040 38.976 87.040 87.040v849.984c0 48.064-38.976 87.040-87.040 87.040zM191.872 23.040v849.984c0 12.992 10.56 23.552 23.552 23.552h104v-897.088h-104c-12.992 0-23.552 10.56-23.552 23.552zM832.128 23.040c0-12.992-10.56-23.552-23.552-23.552h-426.176v897.088h426.176c12.992 0 23.552-10.56 23.552-23.552v-849.984zM480.512 704h256c17.664 0 32 14.336 32 32s-14.336 32-32 32h-256c-17.664 0-32-14.336-32-32s14.336-32 32-32zM480.512 512h256c17.664 0 32 14.336 32 32s-14.336 32-32 32h-256c-17.664 0-32-14.336-32-32s14.336-32 32-32zM738.432 384h-259.584c-16.768 0-30.336-13.568-30.336-30.336s13.568-30.336 30.336-30.336h259.584c16.768 0 30.336 13.568 30.336 30.336s-13.568 30.336-30.336 30.336z" />
<glyph unicode="&#xe616;" glyph-name="bbss" d="M319.616 576.832c0-35.52-28.672-64.32-64.128-64.32s-64.128 28.8-64.128 64.32c0 35.52 28.672 64.32 64.128 64.32s64.128-28.8 64.128-64.32zM575.552 576.832c0 35.52-28.672 64.32-64.128 64.32s-64.128-28.8-64.128-64.32 28.672-64.32 64.128-64.32c35.392 0 64.128 28.8 64.128 64.32zM832.064 576.832c0 35.52-28.672 64.32-64.128 64.32s-64.128-28.8-64.128-64.32 28.672-64.32 64.128-64.32c35.392 0 64.128 28.8 64.128 64.32zM936.96 959.488h-849.984c-48.064 0-87.040-38.976-87.040-87.040v-593.088c0-48.064 38.976-87.040 87.040-87.040l136.64 0.064c17.728 0 32.064 14.4 32.064 32.192s-14.4 32.192-32.064 32.192h-136.64c-12.416 0-22.528 10.112-22.528 22.528v593.088c0 12.416 10.112 22.528 22.528 22.528h849.984c12.416 0 22.528-10.112 22.528-22.528v-593.088c0-12.416-10.112-22.528-22.528-22.528h-489.728c-8.256 0.064-16.576-3.008-22.848-9.344l-223.36-256.128c-12.48-12.48-12.416-32.832 0.128-45.376s32.896-12.672 45.376-0.128l214.976 246.528h475.392c48.064 0 87.040 38.976 87.040 87.040v593.088c0 48.064-38.976 87.040-87.040 87.040z" />
<glyph unicode="&#xe617;" glyph-name="collection" d="M512-0.768c-8.576 0-16.768 3.392-22.784 9.472l-412.608 412.608c-49.408 49.408-77.76 121.856-77.76 198.912s28.352 149.504 77.76 198.912c50.112 50.112 116.736 77.696 187.648 77.696s137.536-27.584 187.648-77.696l60.16-60.16 60.16 60.16c50.112 50.112 116.736 77.696 187.584 77.696s137.536-27.584 187.584-77.696c49.408-49.408 77.76-121.856 77.76-198.912s-28.352-149.504-77.76-198.912l-412.608-412.608c-6.016-6.016-14.272-9.472-22.784-9.472zM264.192 832.32c-53.632 0-104.128-20.864-142.016-58.816-37.376-37.376-58.816-93.248-58.816-153.28s21.44-115.904 58.88-153.28l389.824-389.824 389.76 389.824c37.376 37.376 58.88 93.248 58.88 153.28s-21.44 115.904-58.88 153.28c-37.952 37.952-88.384 58.816-142.016 58.816s-104.064-20.864-142.016-58.816l-82.944-82.944c-12.608-12.608-32.96-12.608-45.568 0l-82.944 82.944c-37.952 37.888-88.384 58.816-142.016 58.816z" />
<glyph unicode="&#xe618;" glyph-name="collections" d="M941.76 815.744c-109.376 108.16-286.848 108.16-396.224 0l-33.536-33.152-33.536 33.152c-109.44 108.16-286.848 108.16-396.224 0s-109.44-283.584 0-391.744l429.76-424.896 429.76 424.896c109.44 108.224 109.44 283.584 0 391.744z" />
<glyph unicode="&#xe619;" glyph-name="envelope" d="M576.064 639.744c0 35.52-28.672 64.32-64.128 64.32s-64.128-28.8-64.128-64.32 28.672-64.32 64.128-64.32c35.392 0 64.128 28.8 64.128 64.32zM809.536 960h-595.136c-48.064 0-87.040-38.976-87.040-87.040v-92.608c15.808-14.4 34.24-28.032 54.784-40.512 41.536-25.152 90.432-44.992 145.216-59.008 19.328-4.928 39.104-9.088 59.2-12.352 13.12 56.896 63.936 99.264 124.608 99.264 60.608 0 111.36-42.304 124.544-99.072 19.712 3.264 39.040 7.296 57.984 12.16 54.784 14.016 103.616 33.856 145.216 59.008 21.824 13.184 41.28 27.776 57.728 43.2v89.92c0 48.064-38.976 87.040-87.040 87.040zM511.168 511.104c-57.984 0-106.944 38.72-122.624 91.84-102.72 15.168-193.28 49.152-261.184 95.552v-675.456c0-48.064 38.976-87.040 87.040-87.040h595.136c48.064 0 87.040 38.976 87.040 87.040v677.44c-67.904-47.232-159.104-81.856-262.784-97.344-15.616-53.184-64.64-92.032-122.688-92.032z" />
<glyph unicode="&#xe61a;" glyph-name="flag" d="M702.464 828.8c-134.4 0-219.712 108.992-317.888 128.832-44.096 8.896-134.272-1.152-180.352-12.16 0 0 0 0 0 0s0 0 0 0 0 0 0 0-0.064 0-0.064 0c-12.992-2.944-23.36-13.76-25.152-27.712l-115.84-946.048c-2.24-17.856 10.432-34.176 28.288-36.416s34.176 10.432 36.416 28.288l58.56 478.464c17.792-0.064 43.2-0.064 79.36-0.064 275.264 0 302.208-61.76 437.952-61.76 119.744 0 145.344 18.752 254.72 63.808 0 26.624 0 327.488 0 511.488-15.424-8.32-121.664-126.592-256.128-126.592z" />
<glyph unicode="&#xe61b;" glyph-name="head" d="M1023.936 5.056c-0.64 45.056-21.12 93.12-128 122.944-107.008 29.888-256 70.464-256 128.768s34.944 96.064 64 138.304v0c39.68 46.848 64 110.272 64 180.032v122.368c0 144.192-103.872 261.056-232 261.056h-46.528c-128.128 0-232-116.864-232-261.056v-122.368c0-65.536 21.44-125.376 56.896-171.264 2.304-3.008 4.736-5.952 7.168-8.832-1.472 0-1.472 0-1.472 0 24.896-42.112 66.88-71.808 63.808-138.304-2.688-58.56-191.36-109.504-255.808-128.768-62.784-18.752-127.936-62.592-127.936-128 0-32.768 0-64 0-64h1023.936c0 0 0.64 24 0 69.056z" />
<glyph unicode="&#xe61c;" glyph-name="homepage" d="M960.192-33.408c0 0.256-0.064 0.448-0.064 0.704s0 0.448 0 0.704c0 1.856-0.192 3.712-0.448 5.504-14.336 178.432-133.824 327.296-296.704 385.216 100.352 53.952 168.576 159.936 168.576 281.856 0 176.64-143.168 319.808-319.808 319.808s-319.808-143.168-319.808-319.808c0-122.048 68.352-228.096 168.832-281.984-161.92-57.728-280.896-205.44-296.064-382.656-0.64-2.56-0.96-5.184-0.96-7.872 0-17.856 14.4-32.32 32.192-32.32 17.344 0 31.488 13.76 32.192 30.976h0.768c3.136 41.344 12.864 81.536 29.056 119.744 19.328 45.568 47.104 86.528 82.368 121.664s76.416 62.784 122.176 82.048c47.36 19.968 97.664 30.080 149.568 30.080s102.208-10.112 149.568-30.080c45.76-19.264 86.848-46.912 122.176-82.048s63.040-76.096 82.368-121.664c16.256-38.208 25.984-78.336 29.056-119.744h0.448c0.704-17.216 14.848-30.976 32.192-30.976s31.488 13.76 32.192 30.976h0.064zM276.416 541.184c-13.312 31.424-20.032 64.896-20.032 99.392s6.72 67.904 20.032 99.392c12.864 30.4 31.296 57.728 54.72 81.152s50.816 41.92 81.216 54.72c31.424 13.312 64.896 20.032 99.392 20.032s67.904-6.72 99.392-20.032c30.4-12.864 57.728-31.296 81.216-54.72s41.92-50.816 54.72-81.216c13.312-31.424 20.032-64.896 20.032-99.392s-6.72-67.904-20.032-99.392c-12.864-30.4-31.296-57.728-54.72-81.216s-50.816-41.92-81.216-54.72c-31.424-13.312-64.896-20.032-99.392-20.032s-67.904 6.72-99.392 20.032c-30.4 12.864-57.728 31.296-81.216 54.72s-41.92 50.816-54.72 81.216z" />
<glyph unicode="&#xe61d;" glyph-name="mail" d="M512.32 511.488l466.944 310.144c-12.544 6.976-26.944 10.944-42.304 10.944h-849.984c-15.36 0-29.824-4.032-42.368-11.008l467.648-310.080zM512.256 383.488l-489.024 421.312c-14.4-15.552-23.232-36.352-23.232-59.2v-595.136c0-48.064 38.976-87.040 87.040-87.040h849.984c48.064 0 87.040 38.976 87.040 87.040v595.136c0 22.912-8.896 43.776-23.36 59.328l-488.384-421.376z" />
<glyph unicode="&#xe61e;" glyph-name="member" d="M520.576 423.488c72 45.44 119.808 125.632 119.808 217.088 0 141.632-114.816 256.448-256.448 256.448s-256.448-114.816-256.448-256.448c0-91.392 47.808-171.648 119.808-217.088-144.64-55.104-247.36-195.072-247.36-359.040 0-0.256 0-0.576 0-0.832v0-32.256c0-17.92 14.528-32.384 32.384-32.384s32.384 14.528 32.384 32.384v0 32.256c0 0.256 0 0.576 0 0.832 0 43.136 8.448 84.928 25.088 124.224 16.064 38.016 39.104 72.128 68.416 101.504s63.488 52.352 101.504 68.416c39.296 16.64 81.088 25.088 124.224 25.088s84.928-8.448 124.224-25.088c38.016-16.064 72.128-39.104 101.504-68.416s52.352-63.488 68.416-101.504c16.64-39.296 25.088-81.088 25.088-124.224 0-0.256 0-0.576 0-0.832v0-32.256c0-17.92 14.528-32.384 32.384-32.384s32.384 14.528 32.384 32.384v32.256c0 0.256 0 0.576 0 0.832 0 163.968-102.784 303.936-247.36 359.040zM191.936 640.512c0 51.264 19.968 99.52 56.256 135.744s84.48 56.256 135.744 56.256 99.52-19.968 135.744-56.256c36.288-36.288 56.256-84.48 56.256-135.744s-19.968-99.52-56.256-135.744c-36.288-36.288-84.48-56.256-135.744-56.256s-99.52 19.968-135.744 56.256-56.256 84.48-56.256 135.744zM1024.064 64.448c0 163.968-102.784 303.936-247.36 359.040 72 45.44 119.808 125.632 119.808 217.088 0 141.44-114.432 256.064-255.744 256.448-0.128 0-0.256 0-0.384 0-0.064 0-0.064 0-0.128 0s-0.128 0-0.256 0v0c-17.728-0.192-32.064-14.592-32.064-32.384 0-17.92 14.528-32.384 32.384-32.384 1.472 0 2.88 0.128 4.288 0.32 49.536-1.152 96-20.992 131.136-56.192 36.288-36.288 56.256-84.48 56.256-135.744s-19.968-99.52-56.256-135.744c-36.288-36.288-51.712-56.256-103.040-56.256v-0.256c-0.064 0-0.128 0-0.256 0-17.92 0-32.384-14.528-32.384-32.384s14.528-32.384 32.384-32.384c1.152 0 2.368 0.064 3.456 0.192 41.984-0.384 49.92-8.832 88.256-25.024 38.016-16.064 72.128-39.104 101.504-68.416s52.352-63.488 68.416-101.504c16.64-39.296 25.088-81.088 25.088-124.224 0-0.256 0-0.576 0-0.832v0-32.256c0-17.92 14.528-32.384 32.384-32.384s32.384 14.528 32.384 32.384v32.256c0 0.256 0 0.576 0 0.832z" />
<glyph unicode="&#xe61f;" glyph-name="phone" d="M809.536 960h-595.136c-48.064 0-87.040-38.976-87.040-87.040v-849.984c0-48.064 38.976-87.040 87.040-87.040h595.136c48.064 0 87.040 38.976 87.040 87.040v849.984c0 48.064-38.976 87.040-87.040 87.040zM512-5.312c-35.392 0-64.128 28.8-64.128 64.32s28.672 64.32 64.128 64.32c35.392 0 64.128-28.8 64.128-64.32s-28.672-64.32-64.128-64.32zM766.464 191.296h-512v639.872h512v-639.872z" />
<glyph unicode="&#xe620;" glyph-name="qq2" d="M874.048 449.856c1.024 1.152 1.472 1.728 1.472 1.728 3.392 28.928-37.888 114.688-37.888 114.688s-0.576 0-1.472 0.064c0.064 0.768 0.256 1.536 0.256 2.24 17.024 275.072-152.832 393.088-327.808 393.088-151.168 0-325.12-111.424-320.96-387.008 0-0.704 0.128-1.536 0.256-2.304-0.384-1.024-0.832-1.984-1.216-3.008 0 0 0 0 0 0-41.6-51.392-41.472-117.824-41.472-117.824s0.128-0.128 0.256-0.32c-25.6-36.672-114.624-179.072-42.752-294.592 0 0 20.352-22.592 67.072 72.96v0c22.080-58.24 57.6-106.24 101.12-143.296-46.592-10.688-80.448-30.336-89.472-53.696-5.76-7.488-8.96-15.488-8.96-23.808 0-41.216 76.8-74.624 171.584-74.624 80.192 0 139.008 29.504 155.2 63.552 4.416-0.192 8.896-0.32 13.312-0.32 0.64 0 1.344 0.064 1.984 0.064 12.608-35.84 83.712-63.232 169.6-63.232 94.784 0 159.68 41.152 159.68 82.368 0 0.704-0.064 1.344-0.128 1.984 0 0.576 0.128 1.152 0.128 1.728 0 28.416-36.544 53.12-90.24 65.728 42.752 36.864 77.376 84.8 98.688 143.104 46.592-95.232 66.944-72.704 66.944-72.704 70.976 114.112-17.6 254.528-45.184 293.44z" />
<glyph unicode="&#xe621;" glyph-name="asia" d="M936.96 960h-849.984c-48.064 0-87.040-38.976-87.040-87.040v-849.984c0-48.064 38.976-87.040 87.040-87.040h849.984c48.064 0 87.040 38.976 87.040 87.040v849.984c0 48.064-38.976 87.040-87.040 87.040zM548.16 283.008c132.096-2.368 216.256-39.488 242.624-52.992v-40.704c-30.016 13.632-136 56.256-285.696 55.424-124.8-0.704-236.032-42.048-263.616-53.056v38.016c25.216 12.928 124.416 56.512 306.688 53.248zM334.208 369.088v30.72c18.816 11.584 66.816 35.712 146.368 41.6v-37.888c-67.456-4.672-125.12-25.728-146.368-34.496zM492.288 717.76c0 7.744 6.4 14.208 14.336 14.208 7.68 0 14.208-6.4 14.208-14.208 0-7.872-6.464-14.272-14.208-14.272-7.936 0-14.336 6.4-14.336 14.272zM564.608 401.664v38.528c62.208-6.592 103.936-25.216 121.984-34.816v-30.144c-18.624 6.912-61.696 20.672-121.984 26.432zM522.112 145.536c194.112-3.52 322.24-73.856 322.24-73.856v-72.256h-214.848v66.176h-48v-66.176h-25.984v66.176h-69.504v-66.176h-25.984v66.176h-48v-66.176h-227.072l1.152 72.256c0 0 122.304 77.76 336 73.856zM960.512 23.040c0-12.992-10.56-23.552-23.552-23.552h-68.608v68.16c0 0 68.544 6.784 69.504 38.144 1.024 31.36-78.272 45.952-96.896 53.952-18.56 7.808-23.424 11.648-23.424 11.648s0.896 11.776-4.864 19.584c-5.952 7.872-4.928 30.272-4.928 30.272s6.784 2.048 27.328 12.8c20.544 10.752 41.152 19.584 42.112 42.112 0.896 22.464-33.28 44.992-74.432 56.704-41.088 11.776-87.104 21.568-87.104 21.568s-13.696 10.752-11.776 20.544c1.984 9.728 3.968 18.56 3.968 18.56s70.4 22.592 71.488 69.696c0.96 46.848-46.080 55.68-95.936 72.256-49.984 16.64-69.568 28.48-94.016 46.016s-40.192 35.264-40.192 35.264 3.968 19.648-0.96 31.296c-4.864 11.712-16.64 17.664-16.64 17.664l-0.96 15.68c0 0 7.872 2.816 4.864 7.872-0.256 0.448-0.512 0.896-0.64 1.472 8.96 6.272 14.848 16.768 14.848 28.544 0 19.264-15.616 34.944-34.88 34.944s-34.88-15.68-34.88-34.944c0-9.664 3.968-18.432 10.304-24.768-0.96-2.304-1.344-5.12 1.28-7.232 4.8-4.032 4.8-20.608 4.8-20.608s-18.56-6.912-19.456-24.448c-1.024-17.664 0.896-25.472 0.896-25.472s-48-58.752-108.672-80.192c-60.736-21.632-102.848-26.496-116.48-59.776-13.76-33.28 15.616-53.952 28.352-61.696s38.144-24.448 38.144-24.448l-1.984-28.48c0 0-10.624-7.744-20.48-11.648s-100.864-22.528-130.24-47.040c-29.312-24.512-15.552-47.68 0.96-58.752s54.784-28.48 56.832-32.32c1.856-3.968-2.048-33.28-2.048-33.28s-53.76-20.544-86.080-32.32c-32.384-11.776-49.92-20.544-49.92-42.944 0-22.592 34.24-31.424 46.976-34.432 12.736-2.816 23.424-2.816 23.424-2.816v-67.2h-69.504c-12.992 0-23.552 10.56-23.552 23.552v849.984c0 12.992 10.56 23.552 23.552 23.552h849.984c12.992 0 23.552-10.56 23.552-23.552v-849.984z" />
<glyph unicode="&#xe622;" glyph-name="NorthAmerica" d="M936.256 960h-849.984c-48.064 0-87.040-38.976-87.040-87.040v-849.984c0-48.064 38.976-87.040 87.040-87.040h849.984c48.064 0 87.040 38.976 87.040 87.040v849.984c0 48.064-38.976 87.040-87.040 87.040zM236.992 0.064v38.528c0 0-1.344 21.248 18.24 21.248s19.584-21.248 19.584-21.248v-38.528h-37.824zM322.112 0.064v38.528c0 0-1.344 21.248 18.24 21.248 19.392 0 19.392-21.248 19.392-21.248v-38.528h-37.696zM407.232 0.064v38.528c0 0-1.344 21.248 18.112 21.248 19.584 0 19.584-21.248 19.584-21.248v-38.528h-37.696zM492.352 0.064v38.528c0 0-1.472 21.248 18.24 21.248 19.392 0 19.392-21.248 19.392-21.248v-38.528h-37.696zM577.408 0.064v38.528c0 0-1.472 21.248 18.112 21.248 19.392 0 19.392-21.248 19.392-21.248v-38.528h-37.504zM662.4 0.064v38.528c0 0-1.408 21.248 18.24 21.248 19.584 0 19.584-21.248 19.584-21.248v-38.528h-37.824zM747.456 0.064v38.528c0 0-1.344 21.248 18.24 21.248s19.584-21.248 19.584-21.248v-38.528h-37.824zM959.232 23.616c0-12.992-10.56-23.552-23.552-23.552h-115.392v64.128c11.84 3.328 20.736 13.952 20.736 26.944 0 15.36-12.672 27.84-27.904 27.84h-37.184v113.216c6.208 4.416 10.368 11.392 10.368 19.648 0 12.992-10.56 23.744-23.808 23.744h-29.056c-3.008 31.616-12.736 97.152-43.2 141.056-31.872 45.696-74.304 73.6-109.952 90.432 2.432 3.52 3.968 7.936 3.968 12.48 0 9.984-6.4 18.112-15.488 20.736v19.584h-15.616v95.040c4.672 2.368 8.064 7.36 8.064 13.184 0 8.192-6.784 14.656-14.784 14.656h-4.288c-4.416 7.552-12.48 13.184-22.016 15.36v154.304h-17.856v-154.304c-9.6-2.176-17.472-7.808-22.016-15.36h-4.288c-8 0-14.784-6.464-14.784-14.656 0-5.824 3.456-10.816 8.192-13.184v-95.040h-15.872v-19.584c-8.896-2.624-15.488-10.752-15.488-20.736 0-4.544 1.664-8.96 4.096-12.48-35.84-16.832-78.080-44.8-109.76-90.432-30.656-43.904-40.384-109.44-43.328-141.056h-29.248c-13.184 0-23.552-10.752-23.552-23.744 0-8.256 3.968-15.296 10.176-19.648v-113.216h-37.12c-15.296 0-27.776-12.48-27.776-27.84 0-12.992 8.704-23.616 20.544-26.944v-64.128h-116.352c-12.992 0-23.552 10.56-23.552 23.552v849.984c0 12.992 10.56 23.552 23.552 23.552h849.984c12.992 0 23.552-10.56 23.552-23.552v-849.984zM719.616 244.096c16 0 16-15.296 16-15.296v-109.632h-30.912v109.632c0 0-1.152 15.296 14.912 15.296zM649.792 244.096c16.128 0 16.128-15.296 16.128-15.296v-109.632h-30.912v109.632c0 0-0.96 15.296 14.784 15.296zM580.352 244.096c16 0 16-15.296 16-15.296v-109.632h-30.912v109.632c0 0-1.152 15.296 14.912 15.296zM510.72 244.096c15.872 0 15.872-15.296 15.872-15.296v-109.632h-30.848v109.632c0 0-1.152 15.296 14.912 15.296zM441.024 244.096c15.872 0 15.872-15.296 15.872-15.296v-109.632h-30.72v109.632c0 0-1.152 15.296 14.848 15.296zM371.392 244.096c15.872 0 15.872-15.296 15.872-15.296v-109.632h-30.72v109.632c0 0-1.152 15.296 14.848 15.296zM301.824 244.096c15.808 0 15.808-15.296 15.808-15.296v-109.632h-30.72v109.632c0 0-1.152 15.296 14.912 15.296z" />
<glyph unicode="&#xe623;" glyph-name="safe" d="M512 704.384c-17.6 0-31.936-14.272-31.936-31.936v-160.576h-159.552c-17.664 0-32-14.336-32-32s14.336-32 32-32h159.552v-159.68c0-17.6 14.272-31.936 31.936-31.936s31.936 14.272 31.936 31.936v159.68h159.936c17.664 0 32 14.336 32 32s-14.336 32-32 32h-159.936v160.576c0 17.6-14.272 31.936-31.936 31.936zM927.808 430.656c-0.192 7.808-0.384 15.872-0.384 24.448v299.392c0 8.832-3.584 17.216-9.984 23.296s-14.976 9.28-23.744 8.896c-6.848-0.32-13.76-0.512-20.608-0.512-88.832 0-171.904 26.816-246.912 79.808-56.832 40.128-87.488 80.96-87.744 81.344-6.080 8.256-15.68 13.184-25.92 13.184 0 0-0.064 0-0.064 0-10.24 0-19.776-4.8-25.856-13.056-0.32-0.384-31.168-41.28-88.256-81.408-75.328-52.992-158.656-79.872-247.488-79.872-6.784 0-13.76 0.192-20.608 0.512-8.832 0.384-17.408-2.816-23.744-8.896s-9.984-14.528-9.984-23.296v-299.392c0-8.64-0.192-16.704-0.384-24.576-0.64-25.472-1.216-49.472 6.208-74.432 7.936-26.816 24.384-51.904 51.776-78.976l220.416-217.728c5.952-7.232 14.976-11.84 25.024-11.84 17.92 0 32.384 14.528 32.384 32.384 0 10.176-4.672 19.264-12.032 25.216l-220.544 217.856c-40.448 39.936-39.936 59.264-38.848 105.984 0.192 8.192 0.384 16.704 0.384 26.112v266.752c53.312 1.088 105.6 10.88 155.584 29.056 42.368 15.424 83.072 36.928 121.024 63.936 32.832 23.296 57.856 46.72 74.816 64.32 16.832-17.664 41.792-41.024 74.432-64.32 37.824-27.008 78.464-48.512 120.704-63.936 49.856-18.24 102.080-27.968 155.392-29.056v-266.752c0-9.344 0.192-17.792 0.384-25.984 1.152-46.72 1.6-66.112-38.848-106.176l-170.944-169.344c-1.408-1.984-3.072-3.84-4.992-5.504l-158.4-156.224c-6.528-5.952-10.56-14.464-10.56-23.936 0-17.92 14.528-32.384 32.384-32.384 7.744 0 14.784 2.688 20.352 7.232v0 0c1.728 1.408 3.264 2.944 4.672 4.608l332.928 329.792c27.328 27.072 43.776 52.224 51.712 79.040 7.36 24.96 6.784 49.024 6.208 74.496z" />
<glyph unicode="&#xe624;" glyph-name="shopping" d="M867.84 254.656h-537.856l71.616 268.544c1.344 3.52 1.984 7.168 1.984 10.88 0.128 7.616-2.752 14.912-7.744 20.608l-211.264 323.84c-4.992 10.56-15.424 17.792-27.456 17.792h-126.912c-16.96 0-30.656-14.336-30.656-32s13.696-32 30.656-32h108.352l198.272-303.872-77.824-291.84c-1.92-4.224-3.072-8.896-3.072-13.888 0-0.192 0-0.384 0-0.64-0.32-14.464 10.048-27.712 25.28-31.104 4.416-0.96 8.832-1.024 12.992-0.32h573.568c16.96 0 30.656 14.336 30.656 32s-13.696 32-30.656 32zM1024.384 736.256c0 17.664-13.696 32-30.656 32h-578.176c-16.96 0-30.656-14.336-30.656-32s13.696-32 30.656-32h520.32l-152.512-256.576h-242.048c-16.96 0-30.656-14.336-30.656-32s13.696-32 30.656-32h259.904c2.176 0 4.352 0.256 6.4 0.704 8.704 0.768 15.936 4.8 19.008 11.712l188.864 317.632c3.2 3.392 5.696 7.552 7.232 12.16l0.064 0.128c1.216 2.688 1.664 5.568 1.536 8.512 0 0.576 0.064 1.152 0.064 1.728zM448 64.064c0-35.52-28.672-64.32-64.128-64.32s-64.128 28.8-64.128 64.32c0 35.52 28.672 64.32 64.128 64.32s64.128-28.8 64.128-64.32zM767.872 64.064c0-35.52-28.672-64.32-64.128-64.32s-64.128 28.8-64.128 64.32c0 35.52 28.672 64.32 64.128 64.32s64.128-28.8 64.128-64.32z" />
<glyph unicode="&#xe625;" glyph-name="sign" d="M300.352 48.064l580.544 579.264-189.12 189.12-580.544-579.328zM65.92 191.936l-6.272-6.272-58.048-214.464c-2.56-9.28 0.128-19.136 6.848-26.048 5.12-5.056 11.968-7.808 18.944-7.808 2.368 0 4.672 0.32 7.040 0.96l214.336 58.24 6.272 6.272-189.12 189.12zM993.088 874.944l-53.376 53.44c-20.032 20.032-45.888 30.272-70.784 30.272-21.568 0-42.432-7.68-57.984-23.296l-73.856-73.664 189.12-189.12 73.792 73.6c33.6 33.6 30.528 91.392-6.912 128.768z" />
<glyph unicode="&#xe626;" glyph-name="subscribe" d="M512 959.744c-282.624 0-511.744-229.12-511.744-511.744s229.12-511.744 511.744-511.744c282.624 0 511.744 229.12 511.744 511.744s-229.12 511.744-511.744 511.744zM828.224 131.712c-41.088-41.088-88.96-73.344-142.208-95.872-55.104-23.296-113.664-35.136-174.080-35.136s-118.976 11.84-174.080 35.136c-53.248 22.528-101.12 54.784-142.208 95.872s-73.344 88.96-95.872 142.208c-23.296 55.104-35.136 113.664-35.136 174.080s11.84 118.976 35.136 174.080c22.528 53.248 54.784 101.12 95.872 142.208s88.96 73.344 142.208 95.872c55.104 23.296 113.664 35.136 174.080 35.136s118.976-11.84 174.080-35.136c53.248-22.528 101.12-54.784 142.208-95.872s73.344-88.96 95.872-142.208c23.296-55.104 35.136-113.664 35.136-174.080s-11.84-118.976-35.136-174.080c-22.528-53.248-54.784-101.12-95.872-142.208zM713.408 631.552l-290.304-298.432-112.128 105.984c-12.608 12.608-33.024 12.608-45.568 0s-12.608-32.96 0-45.568l135.040-128.896c0.064-0.064 0.128-0.128 0.192-0.128s0.064-0.128 0.128-0.128c12.48-12.48 32.768-12.48 45.248 0l312.704 321.92c12.48 12.48 12.48 32.768 0 45.248s-32.768 12.48-45.248 0z" />
<glyph unicode="&#xe627;" glyph-name="applyfor" d="M1023.36 479.040c0.128 8.384-3.008 16.832-9.408 23.296l-182.016 170.304v116.8c0 24-19.456 43.52-43.52 43.52h-127.744l-125.696 117.632c-6.4 6.4-14.912 9.536-23.36 9.408-8.448 0.128-16.896-2.944-23.36-9.408l-125.696-117.632h-128.32c-24 0-43.52-19.456-43.52-43.52v-117.312l-181.376-169.792c-6.4-6.4-9.536-14.848-9.408-23.296v0-456.064c0-48.064 38.976-87.040 87.040-87.040h849.984c48.064 0 87.040 38.976 87.040 87.040v456.064h-0.576zM960.512 43.2l-217.216 201.984 217.216 178.432v-380.416zM280.704 245.184l-217.28-202.048v380.608l217.28-178.496zM330.816 204.032l181.184 168.512 401.216-373.12h-802.432l220.032 204.608zM936.64 486.72l-104.64-85.952v183.872l104.64-97.92zM511.68 884.416l55.040-51.456h-110.016l55.040 51.456zM255.296 768.448h512.256v-420.672l-71.488-58.688-161.024 149.76c-5.12 5.12-11.52 8.128-18.112 9.088-9.856 1.536-20.224-1.408-27.776-9.024l-161.088-149.76-72.704 59.776v419.584zM190.784 401.856l-103.68 85.184 103.68 97.088v-182.272z" />
<glyph unicode="&#xe628;" glyph-name="calendar" d="M936.96 832.576h-231.872v33.536c0 17.92-14.528 32.512-32.512 32.512s-32.512-14.528-32.512-32.512v-33.536h-254.976v33.536c0 17.92-14.528 32.512-32.512 32.512s-32.512-14.528-32.512-32.512v-33.536h-233.088c-48.064 0-87.040-38.976-87.040-87.040v-658.624c0-48.064 38.976-87.040 87.040-87.040h849.984c48.064 0 87.040 38.976 87.040 87.040v658.624c0 48.064-38.976 87.040-87.040 87.040zM960.512 86.912c0-12.992-10.56-23.552-23.552-23.552h-849.984c-12.992 0-23.552 10.56-23.552 23.552v658.624c0 12.992 10.56 23.552 23.552 23.552h233.088v-31.424c0-17.92 14.528-32.512 32.512-32.512s32.512 14.528 32.512 32.512v31.424h254.976v-31.424c0-17.92 14.528-32.512 32.512-32.512s32.512 14.528 32.512 32.512v31.424h231.872c12.992 0 23.552-10.56 23.552-23.552v-658.624zM192.064 575.808h127.744v-127.744h-127.744v127.744zM448.192 575.808h127.744v-127.744h-127.744v127.744zM704.192 575.808h127.744v-127.744h-127.744v127.744zM192.064 319.872h127.744v-127.744h-127.744v127.744zM448.192 319.872h127.744v-127.744h-127.744v127.744zM704.192 319.872h127.744v-127.744h-127.744v127.744z" />
<glyph unicode="&#xe629;" glyph-name="card" d="M936.96 832.064h-849.984c-48.064 0-87.040-38.976-87.040-87.040v-594.112c0-48.064 38.976-87.040 87.040-87.040h849.984c48.064 0 87.040 38.976 87.040 87.040v594.112c0 48.064-38.976 87.040-87.040 87.040zM86.976 768.64h849.984c12.992 0 23.552-10.56 23.552-23.552v-105.216h-897.088v105.216c0 12.992 10.56 23.552 23.552 23.552zM936.96 127.36h-849.984c-12.992 0-23.552 10.56-23.552 23.552v361.024h897.088v-361.024c0-12.992-10.56-23.552-23.552-23.552z" />
<glyph unicode="&#xe62a;" glyph-name="document" d="M872.32 960h-657.6c-48.064 0-87.040-38.976-87.040-87.040v-103.808h-33.92c-17.92 0-32.512-14.528-32.512-32.512s14.528-32.512 32.512-32.512h33.92v-128h-33.92c-17.92 0-32.512-14.528-32.512-32.512s14.528-32.512 32.512-32.512h33.92v-126.784h-33.92c-17.92 0-32.512-14.528-32.512-32.512s14.528-32.512 32.512-32.512h33.92v-127.232h-33.92c-17.92 0-32.512-14.528-32.512-32.512s14.528-32.512 32.512-32.512h33.92v-104.128c0-48.064 38.976-87.040 87.040-87.040h657.6c48.064 0 87.040 38.976 87.040 87.040v849.984c0 48.064-38.976 87.040-87.040 87.040zM191.168 23.040v104.128h31.040c17.92 0 32.512 14.528 32.512 32.512s-14.528 32.512-32.512 32.512h-31.040v127.232h31.040c17.92 0 32.512 14.528 32.512 32.512s-14.528 32.512-32.512 32.512h-31.040v126.784h31.040c17.92 0 32.512 14.528 32.512 32.512s-14.528 32.512-32.512 32.512h-31.040v128h31.040c17.92 0 32.512 14.528 32.512 32.512s-14.528 32.512-32.512 32.512h-31.040v103.808c0 12.992 10.56 23.552 23.552 23.552h488.448v-897.088h-488.448c-12.992 0-23.552 10.56-23.552 23.552zM895.872 23.040c0-12.992-10.56-23.552-23.552-23.552h-106.24v897.088h106.24c12.992 0 23.552-10.56 23.552-23.552v-849.984z" />
<glyph unicode="&#xe62b;" glyph-name="factors" d="M895.872 576.192c0 212.032-171.84 383.872-383.872 383.872s-383.872-171.84-383.872-383.872c0-154.88 91.776-288.384 223.872-349.056v-160.64c0-72.064 58.432-130.56 130.56-130.56h58.944c72.064 0 130.56 58.432 130.56 130.56v160.64c132.096 60.672 223.872 194.112 223.872 349.056zM541.44 0.448h-58.944c-36.416 0-66.048 29.632-66.048 66.048v62.016h191.040v-62.016c0-36.416-29.632-66.048-66.048-66.048zM636.288 281.856c-1.472-0.64-2.88-1.216-4.352-1.792-2.304-0.64-4.48-1.472-6.528-2.56-9.984-5.248-17.92-15.744-17.92-27.84v-57.728h-191.040v12.736l0.064 44.992c0 12.544-8.96 23.424-19.584 28.48-1.216 0.576-2.496 1.088-3.84 1.536-1.792 0.704-3.584 1.472-5.376 2.176-38.016 16.064-72.192 39.104-101.568 68.48s-52.416 63.488-68.48 101.568c-16.64 39.36-25.088 81.152-25.088 124.288s8.448 84.992 25.088 124.288c16.064 38.016 39.104 72.192 68.48 101.568s63.488 52.416 101.568 68.48c39.36 16.64 81.152 25.088 124.288 25.088s84.992-8.448 124.288-25.088c38.016-16.064 72.192-39.104 101.568-68.48s52.416-63.552 68.48-101.568c16.64-39.36 25.088-81.152 25.088-124.288s-8.448-84.992-25.088-124.288c-16.064-38.016-39.104-72.192-68.48-101.568s-63.488-52.416-101.568-68.48z" />
<glyph unicode="&#xe62c;" glyph-name="guide" d="M511.68 959.296c-282.56 0-511.68-229.056-511.68-511.68s229.056-511.68 511.68-511.68 511.68 229.056 511.68 511.68-229.056 511.68-511.68 511.68zM827.84 131.456c-41.088-41.088-88.896-73.344-142.144-95.872-55.104-23.296-113.664-35.136-174.016-35.136s-118.976 11.84-174.016 35.136c-53.248 22.528-101.056 54.784-142.144 95.872s-73.344 88.896-95.872 142.144c-23.296 55.104-35.136 113.664-35.136 174.016s11.84 118.976 35.136 174.016c22.528 53.248 54.784 101.056 95.872 142.144s88.896 73.344 142.144 95.872c55.104 23.296 113.664 35.136 174.016 35.136s118.976-11.84 174.016-35.136c53.248-22.528 101.056-54.784 142.144-95.872s73.344-88.896 95.872-142.144c23.296-55.104 35.136-113.664 35.136-174.016s-11.84-118.976-35.136-174.016c-22.528-53.248-54.784-101.056-95.872-142.144zM724.48 682.688c-26.368-12.288-307.456-143.424-307.456-143.424s-141.12-302.656-146.752-314.944 4.416-23.296 14.144-18.88 320.896 144.512 320.896 144.512 137.984 299.328 144.64 313.792c6.656 14.464 0.96 31.232-25.408 18.944zM451.968 461.696l75.904-75.904-140.864-63.424 64.96 139.392zM572.352 432.512l-73.664 73.664 137.088 63.936-63.424-137.664z" />
<glyph unicode="&#xe62d;" glyph-name="information" d="M191.936 766.016c17.6 0 31.872 14.272 31.872 31.872v128.96c0 17.6-14.272 31.872-31.872 31.872s-31.872-14.272-31.872-31.872v-128.96c0-17.6 14.272-31.872 31.872-31.872zM384.064 766.016c17.6 0 31.872 14.272 31.872 31.872v128.96c0 17.6-14.272 31.872-31.872 31.872s-31.872-14.272-31.872-31.872v-128.96c0-17.6 14.272-31.872 31.872-31.872zM576.064 766.016c17.6 0 31.872 14.272 31.872 31.872v128.96c0 17.6-14.272 31.872-31.872 31.872s-31.872-14.272-31.872-31.872v-128.96c0-17.6 14.272-31.872 31.872-31.872zM831.744 576.448h-63.744v39.936c0 48.064-38.976 87.040-87.040 87.040h-593.984c-48.064 0-87.040-38.976-87.040-87.040v-477.376c0-112.128 90.88-203.072 203.072-203.072h361.92c112.128 0 203.072 90.88 203.072 203.072v30.592h-0.064v22.336h63.808c106.176 0 192.256 86.080 192.256 192.256s-86.080 192.256-192.256 192.256zM662.912 41.088c-26.176-26.176-60.992-40.576-97.984-40.576h-361.92c-36.992 0-71.808 14.4-97.984 40.576s-40.576 60.992-40.576 97.984v476.352c0 12.992 10.56 23.552 23.552 23.552h591.936c12.992 0 23.552-10.56 23.552-23.552v-93.952h-0.064v-353.984c0 0 0-0.704 0-1.92h0.064v-26.496c0-36.992-14.4-71.808-40.576-97.984zM922.048 293.888c-24.128-24.128-56.192-37.44-90.368-37.44h-63.808v255.488h0.064v0.064h63.744c34.112 0 66.24-13.312 90.368-37.44s37.44-56.192 37.44-90.368-13.312-66.24-37.44-90.368z" />
<glyph unicode="&#xe62e;" glyph-name="map" d="M208.576 528.192l0.064-0.064c0.448-1.344 0.832-2.688 1.28-3.968 3.52-7.104 18.176-32.832 77.952-124.288l197.504-319.68c0.128-0.192 0.192-0.32 0.32-0.512l0.128-0.192c5.504-8.896 15.232-14.784 26.24-14.784s20.736 5.888 26.24 14.784l0.128 0.192c0.128 0.192 0.192 0.32 0.32 0.512l197.568 319.936c59.648 91.264 74.176 116.928 77.76 124.032 0.448 1.344 0.896 2.688 1.28 4.032l0.064 0.064c10.752 33.216 16.192 67.968 16.192 103.36 0 44.352-8.448 87.296-25.088 127.744-16.064 39.104-39.168 74.176-68.48 104.384s-63.552 53.824-101.568 70.4c-39.36 17.088-81.216 25.792-124.352 25.792s-84.992-8.64-124.352-25.792c-38.016-16.512-72.192-40.192-101.568-70.4s-52.416-65.28-68.48-104.384c-16.64-40.448-25.088-83.392-25.088-127.744 0-35.392 5.44-70.144 16.192-103.36v0zM512 769.024c70.976 0 128.512-57.536 128.512-128.512s-57.536-128.512-128.512-128.512c-70.976 0-128.512 57.536-128.512 128.512s57.536 128.512 128.512 128.512zM997.76 161.472c-11.072 11.712-25.344 21.952-43.584 31.296-27.52 14.080-65.152 26.368-111.744 36.48-37.12 8-79.104 14.528-124.544 19.456l-37.76-61.12c164.096-14.4 279.808-49.216 279.808-89.92 0-53.568-200.576-97.024-448-97.024s-448 43.456-448 97.024c0 40.704 115.776 75.52 280 89.92l-37.76 61.12c-45.44-4.864-87.488-11.392-124.672-19.456-46.592-10.112-84.224-22.336-111.744-36.48-18.24-9.344-32.512-19.584-43.584-31.296-22.080-23.36-26.688-47.616-26.688-63.808s4.608-40.448 26.688-63.808c11.072-11.712 25.344-21.952 43.584-31.296 27.52-14.080 65.152-26.368 111.744-36.48 88.96-19.264 206.336-29.888 330.432-29.888s241.472 10.624 330.432 29.888c46.592 10.112 84.224 22.336 111.744 36.48 18.24 9.344 32.512 19.584 43.584 31.296 22.080 23.36 26.688 47.616 26.688 63.808s-4.608 40.448-26.688 63.808z" />
<glyph unicode="&#xe62f;" glyph-name="material" d="M640.064 544.576c0 0.896-0.064 1.792-0.128 2.624-0.128 2.88-0.576 5.696-1.408 8.32-1.408 4.864-4.096 9.536-7.936 13.376l-254.976 253.952c-6.272 6.272-14.464 9.28-22.656 9.216-0.128 0-0.32 0-0.448 0 0 0-0.064 0-0.064 0s-0.064 0-0.064 0h-265.408c-48.064 0-87.040-38.976-87.040-87.040v-721.984c0-48.064 38.976-87.040 87.040-87.040h466.048c48.064 0 87.040 38.976 87.040 87.040v41.088h-0.064v478.272c0.064 0.768 0.064 1.472 0.064 2.24zM384.512 725.312l149.312-148.736h-149.312v148.736zM576.576 23.040c0-12.992-10.56-23.552-23.552-23.552h-466.048c-12.992 0-23.552 10.56-23.552 23.552v721.984c0 12.992 10.56 23.552 23.552 23.552h233.536v-224.064c0-17.664 14.336-32 32-32 0.768 0 1.472 0.064 2.24 0.064h221.76c0-16.256 0-32.32 0-32.32v0-426.624h0.064v-30.528zM1023.936 670.336c0.064 0.768 0.064 1.472 0.064 2.24 0 0.896-0.064 1.792-0.128 2.624-0.128 2.88-0.576 5.696-1.408 8.32-1.408 4.864-4.096 9.536-7.936 13.376l-254.976 253.952c-6.272 6.272-14.464 9.28-22.656 9.216-0.128 0-0.32 0-0.448 0 0 0-0.064 0-0.064 0s-0.064 0-0.064 0h-320.128c-17.536 0-31.744-14.208-31.744-31.744s14.208-31.744 31.744-31.744h288.256v-224.064c0-17.664 14.336-32 32-32 0.768 0 1.472 0.064 2.24 0.064h221.76c0-16.256 0-32.32 0-32.32v0-426.624h0.064v-30.528c0-12.992-10.56-23.552-23.552-23.552h-198.528c0 0 0-0.064 0-0.064-0.896 0.064-1.792 0.128-2.752 0.128-17.536 0-31.744-14.208-31.744-31.744s14.208-31.744 31.744-31.744c0.896 0 1.856 0.064 2.752 0.128 0-0.064 0-0.128 0-0.192h198.528c48.064 0 87.040 38.976 87.040 87.040v41.088h-0.064v478.272zM768.448 853.312l149.312-148.736h-149.312v148.736z" />
<glyph unicode="&#xe630;" glyph-name="quotes" d="M-0.192 379.2v-378.944h383.552v422.208h-185.6c3.072 207.232 61.888 284.544 185.6 321.664v151.552c-272.192-49.472-383.552-272.192-383.552-516.544zM1024.192 744.192v151.552c-272.192-49.472-383.552-272.192-383.552-516.544v-378.944h383.552v422.208h-185.6c3.072 207.232 61.888 284.544 185.6 321.664z" />
<glyph unicode="&#xe631;" glyph-name="ranking" d="M736.128 0.32h-448.192c-17.664 0-32-14.336-32-32s14.336-32 32-32h448.192c17.664 0 32 14.336 32 32s-14.336 32-32 32zM1024.384 799.68c0 17.664-14.336 32-32 32h-159.936v40.96c0 48.064-38.976 87.040-87.040 87.040h-466.048c-48.064 0-87.040-38.976-87.040-87.040v-40.96h-160.832c-17.664 0-32-14.336-32-32v0-65.92h64.768v33.92h128v-129.024c0.064-10.88 0.64-21.696 1.728-32.32h-2.624c-34.048 0-66.048 13.248-90.112 37.312s-37.312 56.064-37.312 90.112h-64.448c0-105.984 85.888-191.872 191.872-191.872h16.128c38.208-119.168 144.384-208 272.896-220.672v-193.536h-128.192c-17.664 0-32-14.336-32-32s14.336-32 32-32h320.32c17.664 0 32 14.336 32 32s-14.336 32-32 32h-128.192v193.6c128.448 12.8 234.496 101.504 272.704 220.672h15.296c105.984 0 191.872 85.888 191.872 191.872h-64.448c0-34.048-13.248-66.048-37.312-90.112s-56.064-37.312-90.112-37.312h-1.792c1.152 10.944 1.728 22.080 1.728 33.28h-0.064v128.064h127.232v-33.92h64.768v65.92zM693.12 458.944c-23.488-23.488-50.816-41.92-81.28-54.784-31.488-13.312-64.896-20.032-99.456-20.032s-67.968 6.72-99.456 20.032c-30.4 12.864-57.728 31.296-81.28 54.784s-41.92 50.816-54.784 81.28c-13.312 31.488-20.032 64.896-20.032 99.456v231.936c0 12.992 10.56 23.552 23.552 23.552h464c12.992 0 23.552-10.56 23.552-23.552v-30.528h-0.064v-200.512c0 0 0-0.704 0-1.92v0c-0.128-34.176-6.848-67.328-20.032-98.496-12.864-30.4-31.296-57.792-54.784-81.28z" />
<glyph unicode="&#xe632;" glyph-name="rate" d="M191.936 512.064v-512.064h-128v512.064h128zM191.936 576.576h-128c-35.584 0-64.448-28.864-64.448-64.448v-512.064c0-35.584 28.864-64.448 64.448-64.448h128c35.584 0 64.448 28.864 64.448 64.448v512.064c0 35.584-28.864 64.448-64.448 64.448v0zM960 383.744v-383.68h-128.576v383.68h128.576zM960 448.256h-128.576c-35.584 0-64.448-28.864-64.448-64.448v-383.68c0-35.584 28.864-64.448 64.448-64.448h128.576c35.584 0 64.448 28.864 64.448 64.448v383.68c0 35.584-28.864 64.448-64.448 64.448v0zM575.936 895.936v-895.872h-127.104v895.872h127.104zM575.936 960.384h-127.104c-35.584 0-64.448-28.864-64.448-64.448v-895.872c0-35.584 28.864-64.448 64.448-64.448h127.104c35.584 0 64.448 28.864 64.448 64.448v895.872c0 35.584-28.864 64.448-64.448 64.448v0z" />
<glyph unicode="&#xe633;" glyph-name="school" d="M1014.592 457.088l-478.4 492.672c-0.448 0.448-0.832 0.832-1.28 1.28-11.712 10.88-28.992 11.968-41.856 3.264-1.92-1.28-3.712-2.816-5.376-4.544l-478.4-492.672c-13.376-13.76-13.376-36.16 0-49.92s35.072-13.76 48.512 0l69.376 71.424v-506.112c0-0.896 0.064-1.792 0.128-2.688-0.064-0.832-0.128-1.664-0.128-2.56 0-17.28 14.016-31.296 31.296-31.296h191.68c17.28 0 31.296 14.016 31.296 31.296 0 0 0 0.064 0 0.064s0 0.064 0 0.064v285.952h258.88v-285.952c0-17.408 14.080-31.488 31.488-31.488 0.192 0 0.32 0 0.512 0s0.32 0 0.512 0h191.68c17.28 0 31.296 14.016 31.296 31.296 0 0.832-0.064 1.728-0.128 2.56 0.064 0.896 0.128 1.792 0.128 2.688v507.072l70.272-72.384c13.376-13.76 35.072-13.76 48.512 0s13.376 36.16 0 49.92zM825.216 548.48v-549.888h-121.92v289.6c0 9.856-4.544 18.624-11.648 24.448-5.952 5.184-13.696 8.256-22.144 8.256h-317.184c-8.448 0-16.192-3.136-22.144-8.256-7.104-5.76-11.648-14.592-11.648-24.448v-289.6h-120.768v549.888c0 0.896-0.064 1.792-0.128 2.752l314.304 323.648 313.472-322.816c-0.128-1.152-0.192-2.368-0.192-3.584z" />
<glyph unicode="&#xe634;" glyph-name="score" d="M1018.368 137.088l-198.976 296.768c6.656 11.712 12.608 23.808 17.92 36.352 18.432 43.584 27.776 89.792 27.776 137.408s-9.344 93.888-27.776 137.408c-17.792 42.048-43.2 79.808-75.648 112.192s-70.144 57.856-112.192 75.648c-43.584 18.432-89.792 27.776-137.408 27.776s-93.888-9.344-137.408-27.776c-42.048-17.792-79.808-43.2-112.192-75.648s-57.856-70.144-75.648-112.192c-18.432-43.584-27.776-89.792-27.776-137.408s9.344-93.888 27.776-137.408c5.312-12.48 11.264-24.64 17.92-36.352l-198.976-296.768c-7.488-11.136-7.232-25.664 0.512-36.608s21.44-15.936 34.368-12.544l163.392 42.496 22.976-167.232c1.792-13.248 11.648-24 24.704-27.008 2.432-0.576 4.864-0.832 7.232-0.832 10.624 0 20.736 5.248 26.752 14.336l204.608 305.664c7.232-0.448 14.464-0.704 21.76-0.704s14.592 0.256 21.76 0.704l204.608-305.664c6.080-9.088 16.192-14.336 26.752-14.336 2.432 0 4.864 0.256 7.232 0.832 13.056 3.008 22.848 13.76 24.704 27.008l22.976 167.232 163.392-42.496c12.992-3.392 26.624 1.6 34.368 12.544s7.936 25.472 0.512 36.608zM279.168 55.936l-16.384 119.168c-1.28 9.152-6.336 17.28-14.016 22.4-5.376 3.584-11.584 5.44-17.92 5.44-2.688 0-5.44-0.32-8.128-1.024l-116.288-30.272 137.92 205.696c5.76-6.656 11.712-13.12 17.984-19.392 32.384-32.384 70.144-57.856 112.192-75.648 14.912-6.336 30.208-11.52 45.696-15.68l-141.056-210.688zM488.192 320.064c-100.544 8.192-186.496 67.968-231.424 152.768-21.312 40.256-33.408 86.144-33.408 134.848 0 159.36 129.216 288.576 288.576 288.576s288.576-129.216 288.576-288.576c0-48.704-12.096-94.592-33.408-134.848-44.928-84.8-130.88-144.576-231.424-152.768-7.872-0.64-15.744-0.96-23.744-0.96s-15.936 0.32-23.744 0.96zM801.216 201.92c-8.896 2.304-18.368 0.704-26.048-4.416s-12.736-13.248-14.016-22.4l-16.384-119.168-141.056 210.688c15.488 4.16 30.784 9.408 45.696 15.68 42.048 17.792 79.808 43.2 112.192 75.648 6.272 6.272 12.224 12.736 17.984 19.392l137.92-205.696-116.288 30.272z" />
<glyph unicode="&#xe635;" glyph-name="sorting" d="M958.080 574.208h-126.528v129.024h-127.232v128.512h-128.448v128.256h-127.936v-128.256h-128.448v-128.512h-128.576v-129.024h-127.808v-126.592h256.448v-511.552h384.768v511.552h253.76z" />
<glyph unicode="&#xe636;" glyph-name="strategy" d="M1022.72 807.68c-2.496 9.728-9.536 18.176-19.648 22.016l-318.016 127.936c-2.816 1.216-5.824 2.048-9.024 2.432-0.128 0-0.192 0-0.32 0.064-0.32 0.064-0.64 0.064-0.96 0.064-0.256 0-0.448 0.064-0.704 0.064s-0.512 0-0.704 0c-0.32 0-0.576 0-0.896 0-0.064 0-0.128 0-0.192 0-0.192 0-0.384 0-0.512 0-3.904 0.064-7.936-0.576-11.84-2.048l-308.288-124.032-306.816 123.456c-2.816 1.216-5.824 2.048-9.024 2.432-0.128 0-0.192 0-0.32 0.064-0.32 0.064-0.64 0.064-0.96 0.064-0.256 0-0.448 0.064-0.704 0.064s-0.512 0-0.704 0c-0.32 0-0.576 0-0.896 0-0.064 0-0.128 0-0.192 0-0.192 0-0.384 0-0.576 0-0.256 0-0.512 0-0.832 0s-0.64-0.064-0.96-0.064c-0.192 0-0.384 0-0.512-0.064-0.448-0.064-0.832-0.064-1.28-0.128-0.064 0-0.128 0-0.192 0-5.76-0.768-11.008-3.072-15.36-6.464 0 0 0 0 0 0-0.384-0.32-0.768-0.576-1.088-0.896-0.064-0.064-0.128-0.064-0.128-0.128-0.32-0.256-0.64-0.576-0.96-0.832-0.064-0.064-0.192-0.128-0.256-0.256-0.256-0.256-0.576-0.576-0.832-0.832-0.064-0.128-0.192-0.192-0.256-0.32-0.256-0.256-0.512-0.576-0.768-0.832-0.064-0.128-0.192-0.192-0.256-0.32-0.256-0.32-0.512-0.64-0.768-0.896-0.064-0.064-0.128-0.192-0.192-0.256-0.256-0.32-0.512-0.704-0.768-1.088-0.064-0.064-0.064-0.064-0.128-0.128-3.008-4.288-4.992-9.344-5.632-14.848 0 0 0 0 0-0.064-0.064-0.384-0.064-0.768-0.064-1.088 0-0.192-0.064-0.384-0.064-0.576 0-0.256 0-0.512 0-0.768s0-0.576 0-0.896c0-0.064 0-0.128 0-0.128v-831.040c0-0.128 0-0.256 0-0.384-0.256-13.12 7.68-25.6 20.672-30.528l319.488-128.512c3.392-1.28 6.848-1.92 10.24-2.048 0.064 0 0.064 0 0.128 0 0.32 0 0.576 0 0.896 0 0.064 0 0.128 0 0.256 0s0.128 0 0.192 0c0.256 0 0.512 0 0.768 0 0.064 0 0.064 0 0.128 0s0 0 0 0c0.256 0 0.448 0 0.704 0s0.512 0.064 0.768 0.064c0.32 0 0.576 0.064 0.896 0.064 0.128 0 0.256 0 0.384 0.064 3.136 0.384 6.144 1.216 8.96 2.432l307.264 123.584 308.672-124.16c3.712-1.408 7.552-2.048 11.328-2.048 0.064 0 0.192 0 0.256 0 0.256 0 0.576 0 0.832 0 0.064 0 0.064 0 0.128 0 17.216 0.512 31.040 14.656 31.040 32v831.040c0 3.072-0.448 6.080-1.28 8.896zM64 880.896l255.68-102.848v-763.008l-255.68 102.848v763.008zM383.68 778.112l256.576 103.232v-763.008l-256.576-103.232v763.008zM704.256 880.896l255.744-102.912v-763.008l-255.744 102.912v763.008z" />
<glyph unicode="&#xe637;" glyph-name="strategy02" d="M288 704.448h448c17.664 0 32 14.336 32 32s-14.336 32-32 32h-448c-17.664 0-32-14.336-32-32s14.336-32 32-32zM288 512.448h448c17.664 0 32 14.336 32 32s-14.336 32-32 32h-448c-17.664 0-32-14.336-32-32s14.336-32 32-32zM895.488 288.576c0 0 0 0 0 0.064v584.256c0 48.064-38.976 87.040-87.040 87.040h-592.96c-48.064 0-87.040-38.976-87.040-87.040v-848.832c0-48.064 38.976-87.040 87.040-87.040h136.512c17.536 0 31.744 14.208 31.744 31.744s-14.208 31.744-31.744 31.744h-136.512c-12.992 0-23.552 10.56-23.552 23.552v848.832c0 12.992 10.56 23.552 23.552 23.552h592.96c12.992 0 23.552-10.56 23.552-23.552v-519.616c0-0.064 0-16.512 0-32.832h-287.936c-17.6 0-31.872-14.272-31.872-31.872 0 0 0 0 0 0s0 0 0 0v-320.192c0-0.128 0-0.32 0-0.448-0.128-8.192 2.944-16.448 9.216-22.72 11.2-11.2 28.736-12.16 41.088-2.88 2.368 1.664 4.544 3.648 6.336 5.888l313.856 314.88c0.832 0.64 1.6 1.28 2.368 1.92 6.4 5.824 10.432 14.208 10.432 23.488v0c0 0 0 0 0 0.064zM576 256.704h211.648l-211.648-212.352v212.352z" />
<glyph unicode="&#xe638;" glyph-name="university" d="M511.872 704.256c34.112 0 66.176-13.312 90.304-37.44s37.44-56.192 37.44-90.304-13.312-66.176-37.44-90.304-56.192-37.44-90.304-37.44-66.176 13.312-90.304 37.44-37.44 56.192-37.44 90.304 13.312 66.176 37.44 90.304 56.192 37.44 90.304 37.44zM511.872 768.768c-106.176 0-192.192-86.080-192.192-192.192s86.080-192.192 192.192-192.192 192.192 86.080 192.192 192.192c0 106.176-86.080 192.192-192.192 192.192v0zM512 894.976c43.072 0 84.864-8.448 124.16-25.024 37.952-16.064 72.128-39.104 101.44-68.416s52.352-63.424 68.416-101.44c16.64-39.296 25.024-81.024 25.024-124.16 0-35.84-5.888-70.912-17.472-104.384-4.928-9.6-31.296-54.336-171.136-258.048-50.944-74.24-100.992-146.24-130.304-188.352-29.312 42.112-79.424 114.112-130.368 188.288-139.968 203.712-166.336 248.512-171.264 258.048-11.584 33.472-17.472 68.608-17.472 104.384 0 43.072 8.448 84.864 25.024 124.16 16.064 37.952 39.104 72.128 68.416 101.44s63.424 52.352 101.44 68.416c39.296 16.64 81.088 25.024 124.16 25.024zM512 959.424c-211.776 0-383.488-171.712-383.488-383.488 0-44.864 7.68-87.936 21.888-128 13.376-37.696 335.168-497.472 335.168-497.472v0c5.76-8.384 15.424-13.888 26.304-13.952v0 0c0.064 0 0.128 0 0.192 0 11.008 0 20.736 5.568 26.56 14.016v0c0 0 321.6 459.712 334.976 497.408 14.144 40 21.888 83.072 21.888 128 0 211.776-171.712 383.488-383.488 383.488v0z" />
<glyph unicode="&#xe639;" glyph-name="visa" d="M915.52 895.872c3.264 0 6.4-0.384 9.472-1.024 17.024-3.712 30.4-17.152 33.984-34.176 0.64-2.944 0.96-6.016 0.96-9.152 0-9.92-3.264-19.008-8.704-26.432-1.792-2.368-3.776-4.608-6.016-6.592l-238.912-238.912 34.816-532.928-52.672-46.528-146.624 414.912-228.928-229.12c0 0 34.816-101.12 46.4-142.976 7.36-26.624 1.024-41.728-10.624-41.728-6.656 0-15.040 4.928-23.552 15.424-4.288 5.056-63.040 64-121.856 122.688-58.624 58.816-117.568 117.568-122.688 121.856-23.488 19.072-19.072 37.312 5.824 37.312 5.76 0 12.608-0.96 20.48-3.136 41.856-11.584 142.976-46.4 142.976-46.4l229.12 228.928-414.912 146.624 46.528 52.672 532.928-34.816 241.792 241.664c0 0 0 0 0 0s0 0 0 0v0c7.936 7.36 18.496 11.84 30.208 11.84zM915.52 960.32c-26.688 0-52.224-9.728-72.192-27.392-0.896-0.768-1.856-1.6-2.688-2.432l-2.688-2.56c-0.32-0.32-0.64-0.576-0.896-0.896l-218.432-218.432-503.808 32.896c-1.408 0.064-2.816 0.128-4.224 0.128-18.432 0-36.032-7.872-48.32-21.824l-46.528-52.672c-14.208-16.064-19.456-38.144-14.080-58.88s20.736-37.44 40.896-44.608l318.464-112.512-128.384-128.256c-33.856 11.392-81.92 27.2-108.608 34.56-13.184 3.648-25.856 5.504-37.632 5.504-46.208 0-72.32-27.2-81.344-52.736-7.232-20.48-5.44-43.008 5.056-63.488 6.4-12.48 15.872-24 28.288-34.368 7.808-7.296 51.2-50.432 119.168-118.592 0.064-0.064 0.128-0.128 0.128-0.128 68.16-67.904 111.232-111.36 118.592-119.168 8.128-9.728 17.088-17.792 26.56-23.808 14.272-9.088 30.080-13.888 45.76-13.888 24 0 46.144 11.008 60.736 30.208 12.672 16.576 24.96 46.272 12.032 93.184-7.36 26.688-23.232 74.752-34.56 108.608l128.256 128.384 112.512-318.464c7.168-20.224 23.872-35.52 44.608-40.896 5.376-1.408 10.816-2.048 16.192-2.048 15.552 0 30.72 5.632 42.688 16.128l52.672 46.528c14.976 13.184 22.976 32.64 21.632 52.544l-32.896 503.808 217.344 217.344c4.8 4.48 9.216 9.408 13.12 14.72 14.016 18.88 21.376 41.28 21.376 64.768 0 7.488-0.768 15.040-2.304 22.4-8.832 41.856-41.536 74.816-83.328 83.904-7.616 1.664-15.424 2.496-23.168 2.496v0z" />
<glyph unicode="&#xe63a;" glyph-name="welcome" d="M511.872-63.936c-54.208 0-88.576 0.192-105.152 0.512-78.848 1.664-122.496 26.88-157.568 47.168-22.144 12.8-38.144 22.016-58.048 22.016-57.472 0-111.744 0-147.264 37.632-31.168 33.024-43.264 88.64-43.264 198.464 0 52.224 0 65.024-0.064 75.456 0 7.296 0 13.44 0 30.912 0 35.2 1.664 69.504 22.080 101.44 21.312 33.344 59.52 58.048 120.32 77.76 110.336 35.712 219.328 160.704 271.232 310.976 15.424 44.736 25.792 70.784 39.616 89.024 21.76 28.736 48.768 32.448 69.888 32.448 50.816 0 79.040-40.256 97.984-75.328 17.216-32 24.064-78.080 20.352-137.024-2.944-46.464-11.968-88.896-19.072-108.672l-2.56-7.040c-7.232-19.968-15.232-42.048-17.664-53.952 6.336-1.024 17.984-1.984 39.296-1.984 43.904 0 83.392 0.192 118.272 0.32 29.44 0.128 57.216 0.256 83.2 0.256 4.544 0 9.088 0.064 13.632 0.064 4.736 0.064 9.408 0.064 14.080 0.064 24.768 0 53.184-1.024 76.8-13.056 20.288-10.368 44.416-32.896 44.416-81.472 0-18.048-3.584-32.896-6.464-44.864-2.176-9.088-4.096-16.896-3.2-21.568 1.152-6.080 8.704-13.568 14.848-18.752 0.384-0.32 0.832-0.704 1.216-1.088 16.448-15.424 25.024-34.816 24.832-56.064-0.448-42.496-36.48-76.224-40.64-79.872l-0.512-0.448c-3.52-3.2-7.168-6.464-8.256-9.536-1.344-3.904 0.512-11.456 4.992-20.224 18.944-37.056 10.304-63.936-0.32-79.936-11.584-17.6-29.44-28.352-43.84-36.992-3.776-2.304-7.36-4.48-10.432-6.464-15.552-10.368-21.44-19.52-12.672-43.392 9.408-25.536 6.4-51.392-8.512-72.704-27.52-39.488-86.464-53.504-132.48-53.504-16.896 0-47.36-0.064-82.752-0.192-53.568-0.128-120.256-0.32-176.384-0.32zM523.52 895.488c-13.248 0-15.104-2.432-18.432-6.848-8.448-11.136-17.728-35.52-30.080-71.168-28.928-83.84-74.176-161.6-130.752-224.768-55.936-62.464-118.72-106.176-181.504-126.528-97.792-31.68-97.792-64.128-97.792-117.824 0-17.408 0-23.552 0-30.848 0-10.496 0.064-23.296 0.064-75.584 0-87.808 7.936-135.424 25.728-154.24 15.36-16.256 48.128-17.408 100.352-17.408 37.184 0 64.192-15.616 90.304-30.72 31.68-18.304 64.384-37.184 126.72-38.528 15.872-0.32 50.816-0.512 103.808-0.512 56 0 122.624 0.192 176.192 0.32 35.392 0.128 65.92 0.192 82.88 0.192 39.936 0 70.848 13.376 79.616 25.92 1.92 2.816 3.584 6.144 0.896 13.568-18.24 49.6-5.312 90.816 37.376 119.296 4.288 2.816 8.64 5.504 12.928 8.064 27.968 16.832 27.2 18.304 19.968 32.384-13.12 25.664-15.936 49.6-8.384 71.040 6.528 18.56 19.2 29.888 25.984 36.032l0.448 0.448c7.808 7.040 19.2 22.72 19.264 32.64 0 1.536 0.064 3.968-4.032 7.936-47.296 40.512-38.4 77.184-31.936 104.064 2.432 9.92 4.672 19.328 4.672 29.696 0 19.328-6.080 22.4-9.28 24.064-10.368 5.312-29.76 6.016-47.424 6.016-4.48 0-8.96-0.064-13.504-0.064-4.672-0.064-9.472-0.064-14.272-0.064-25.856 0-53.568-0.128-82.88-0.256-34.944-0.192-74.56-0.384-118.592-0.384-41.28 0-76.928 2.112-94.912 27.712-13.184 18.752-10.048 40.96-6.528 56 3.648 15.68 10.496 34.624 19.2 58.688l2.496 6.976c11.008 30.528 28.992 144.32 2.624 193.216-22.336 41.408-34.624 41.408-41.216 41.408z" />
<glyph unicode="&#xe63b;" glyph-name="quotes02" d="M1024.192 516.8v378.944h-383.552v-422.208h185.6c-3.072-207.232-61.888-284.544-185.6-321.664v-151.552c272.192 49.472 383.552 272.192 383.552 516.544zM-0.192 151.808v-151.552c272.192 49.472 383.552 272.192 383.552 516.544v378.944h-383.552v-422.208h185.6c-3.072-207.232-61.888-284.544-185.6-321.664z" />
<glyph unicode="&#xe63c;" glyph-name="fast_back_click" d="M524.608 254.336v420.48l-210.176-210.24zM221.12 707.904h28.544v-486.784h-28.544v486.784zM936.96 960h-849.984c-48.064 0-87.040-38.976-87.040-87.040v-849.984c0-48.064 38.976-87.040 87.040-87.040h849.984c48.064 0 87.040 38.976 87.040 87.040v849.984c0 48.064-38.976 87.040-87.040 87.040zM862.72 201.088c0-28.544-19.392-43.456-38.528-43.456-7.872 0-19.776 2.496-31.552 14.4l-204.928 204.928v-175.872c0-28.544-19.328-43.456-38.464-43.456-7.872 0-19.776 2.496-31.616 14.4l-204.928 204.928v-164.416c0-30.080-24.448-54.592-54.464-54.592h-45.76c-30.080 0-54.592 24.448-54.592 54.592v504.128c0 30.080 24.512 54.464 54.592 54.464h45.76c30.016 0 54.464-24.448 54.464-54.464v-164.416l204.992 204.928c11.776 11.968 23.68 14.464 31.552 14.464 13.184 0 25.216-6.912 32.128-18.432 4.224-7.040 6.336-15.488 6.336-25.024v-175.872l204.928 204.864c11.776 11.968 23.68 14.464 31.552 14.464 19.136 0 38.528-14.912 38.528-43.456v-527.040zM799.552 254.336v420.48l-210.24-210.24z" />
<glyph unicode="&#xe63d;" glyph-name="fast_forward_click" d="M498.368 251.52l210.176 210.24-210.176 210.24zM223.424 251.52l210.24 210.24-210.24 210.24zM939.84 960h-849.984c-48.064 0-87.040-38.976-87.040-87.040v-849.984c0-48.064 38.976-87.040 87.040-87.040h849.984c48.064 0 87.040 38.976 87.040 87.040v849.984c0 48.064-38.976 87.040-87.040 87.040zM865.024 209.664c0-30.080-24.512-54.464-54.592-54.464h-45.76c-30.016 0-54.464 24.448-54.464 54.464v164.416l-204.992-204.928c-11.776-11.968-23.68-14.464-31.552-14.464-13.184 0-25.216 6.912-32.128 18.432-4.224 7.040-6.336 15.488-6.336 25.024v175.872l-204.928-204.864c-11.776-11.968-23.68-14.464-31.552-14.464-19.136 0-38.528 14.912-38.528 43.456v527.040c0 28.544 19.392 43.456 38.528 43.456 7.872 0 19.776-2.496 31.552-14.4l204.928-204.928v175.872c0 28.544 19.328 43.456 38.464 43.456 7.872 0 19.776-2.496 31.616-14.4l204.928-204.928v164.416c0 30.080 24.448 54.592 54.464 54.592h45.76c30.080 0 54.592-24.448 54.592-54.592v-504.128zM773.312 705.152h28.544v-486.784h-28.544v486.784z" />
<glyph unicode="&#xe63e;" glyph-name="back_click" d="M501.568 532.672l-21.696 4.224v105.728l-229.312-173.184 230.208-170.688v132.224l28.096-1.344c138.24-6.656 221.056-105.728 258.24-164.544-8.384 29.248-25.344 77.824-55.68 125.888-55.552 88.128-104.576 121.216-209.92 141.696zM512.384 957.12c-282.56 0-511.552-229.056-511.552-511.552s228.992-511.552 511.552-511.552c282.56 0 511.552 228.992 511.552 511.552s-228.992 511.552-511.552 511.552zM801.984 194.432c-7.488-4.224-16.064-6.528-24.704-6.528-12.288 0-24.128 4.48-33.344 12.608l-0.448 0.384c-3.584 3.328-5.184 6.464-6.656 9.28-17.728 34.624-82.176 142.464-202.432 162.752v-81.344c0-20.8-12.544-39.168-31.872-46.848-5.824-2.304-12.032-3.52-18.432-3.52-12.992 0-25.472 5.056-34.752 13.952l-240.064 178.048-1.664 1.792c-17.856 19.136-17.984 49.216-0.192 68.48l1.664 1.792 239.232 180.672c9.344 9.024 21.952 14.144 35.008 14.144 6.336 0 12.544-1.152 18.432-3.52 19.328-7.552 31.872-25.984 31.872-46.848v-68.992c49.664-11.2 85.696-25.536 117.696-46.4 39.232-25.6 71.808-60.992 105.728-114.816 53.376-84.736 69.248-168.704 69.888-172.288 3.904-21.056-6.080-42.368-24.768-52.864z" />
<glyph unicode="&#xe63f;" glyph-name="cancel_click" d="M381.312 213.248v-0.64c0-17.344 12.992-30.976 29.632-30.976h198.784c16.384 0 29.696 13.312 29.696 29.632v0.64l0.064 0.64 39.808 411.776h-337.856l39.872-411.072zM554.176 254.528l14.272 297.92c0.192 14.848 12.288 26.88 27.136 26.88 14.976 0 27.136-12.224 27.136-27.264v-0.64l-14.144-297.92c-0.192-14.784-12.288-26.752-27.136-26.752-15.040 0-27.264 12.16-27.264 27.072v0.64zM483.2 552.064c0 15.040 12.16 27.264 27.136 27.264s27.2-12.224 27.2-27.264v-298.176c0-14.912-12.224-27.072-27.2-27.072s-27.136 12.16-27.136 27.072v298.176zM397.952 552.064c0 15.040 12.224 27.264 27.2 27.264 14.848 0 26.88-12.032 27.072-26.88l14.272-298.24v-0.32c0-14.912-12.224-27.072-27.2-27.072-14.848 0-26.88 11.968-27.072 26.752l-14.272 298.24v0.32zM512.384 957.12c-282.56 0-511.552-229.056-511.552-511.552s228.992-511.552 511.552-511.552c282.56 0 511.552 228.992 511.552 511.552s-228.992 511.552-511.552 511.552zM765.952 624.32h-32.064l-40.256-415.104c-0.128-21.312-8.704-41.536-24.128-57.024-16-16-37.184-24.832-59.776-24.832h-198.784c-46.080 0-83.584 37.312-83.968 83.264l-40.064 413.632h-32.128c-15.040 0-27.264 12.16-27.264 27.136s12.224 27.072 27.264 27.072h110.976v15.488c0 42.432 34.496 76.992 76.864 76.992h142.080c42.368 0 76.8-34.56 76.8-76.992v-15.488h104.384c14.976 0 27.136-12.16 27.136-27.072s-12.16-27.136-27.136-27.136zM614.848 692.224c0 18.752-15.232 33.984-33.984 33.984h-134.272c-18.752 0-33.984-15.232-33.984-33.984v-13.632h202.24v13.632z" />
<glyph unicode="&#xe640;" glyph-name="draw_click" d="M731.712 400.896c-2.112 0-3.904-0.064-5.248-0.128-0.128 0-0.256 0-0.32 0-0.64-0.192-1.472-0.384-2.176-0.576-5.824-1.664-14.72-4.16-25.152-4.16-16.32 0-31.168 6.208-42.752 17.984-1.6 1.664-3.008 3.456-4.224 5.504-21.888 37.44-11.584 64.704 0 77.44 4.352 5.888 13.76 16.256 33.152 30.144 0.704 0.512 1.408 0.96 2.176 1.408 7.232 4.224 22.016 12.864 13.44 44.8-13.952 26.752-78.336 132.032-228.352 132.032-12.032 0-24.576-0.704-37.184-2.048-61.76-6.592-108.608-31.168-139.2-72.96-41.92-57.344-44.864-136.128-34.624-186.24 0.32-1.664 0.512-3.328 0.576-5.056 0.32-16.896 20.416-75.008 65.536-132.544 35.456-45.248 94.016-99.648 171.648-102.080 0.832 0 1.6-0.064 2.368-0.192 14.144-1.664 28.288-2.56 41.984-2.56 113.728 0 206.080 60.16 229.952 149.696 3.008 12.096 5.056 28.352-1.92 37.248-6.080 7.808-20.544 12.224-39.68 12.224zM374.976 615.68c22.272 0 40.256-18.048 40.256-40.256s-18.048-40.256-40.256-40.256c-22.272 0-40.256 18.048-40.256 40.256s18.048 40.256 40.256 40.256zM332.736 419.2c-22.272 0-40.256 18.048-40.256 40.256s18.048 40.256 40.256 40.256c22.272 0 40.256-18.048 40.256-40.256s-18.048-40.256-40.256-40.256zM397.952 300.544c-22.272 0-40.256 18.048-40.256 40.256s18.048 40.256 40.256 40.256c22.272 0 40.256-18.048 40.256-40.256s-18.048-40.256-40.256-40.256zM495.808 575.424c-22.272 0-40.256 18.048-40.256 40.256s18.048 40.256 40.256 40.256c22.272 0 40.256-18.048 40.256-40.256s-18.048-40.256-40.256-40.256zM588.416 341.504c-27.392 0-49.6 22.208-49.6 49.6s22.208 49.6 49.6 49.6c27.392 0 49.6-22.208 49.6-49.6s-22.208-49.6-49.6-49.6zM512.384 960c-282.56 0-511.552-229.056-511.552-511.552s228.992-511.552 511.552-511.552c282.56 0 511.552 228.992 511.552 511.552s-228.992 511.552-511.552 511.552zM826.816 337.792c-0.064-0.128-0.064-0.256-0.128-0.384-14.272-53.888-49.088-102.336-98.048-136.448-51.264-35.712-115.392-54.592-185.344-54.592-15.488 0-31.424 0.96-47.296 2.816-42.24 1.536-83.392 14.912-122.368 39.744-32.32 20.608-62.528 48.704-89.792 83.392-48.064 61.312-75.2 128.576-77.184 162.816-12.544 64-7.296 156.672 44.608 227.648 18.944 25.92 42.88 47.104 71.040 62.912 30.72 17.216 66.624 28.096 106.88 32.384 14.528 1.536 29.056 2.368 43.072 2.368 76.032 0 142.656-22.464 198.080-66.688 47.808-38.144 72.448-81.344 80.832-98.176 0.704-1.472 1.344-3.008 1.792-4.544 6.4-21.76 7.168-41.856 2.304-59.584-5.696-20.8-19.2-38.144-39.040-50.112-12.672-9.152-18.048-15.104-19.584-16.896-0.768-1.6-1.472-2.624-2.368-3.52 0.128-1.536 0.64-4.672 3.072-9.6 0.448-0.128 0.896-0.128 1.472-0.128 2.816 0 6.72 1.088 10.176 2.048 4.544 1.28 9.28 2.624 14.784 2.624 0.256 0 0.576 0 0.96 0 1.6 0.064 3.968 0.128 6.976 0.128 37.312 0 66.112-11.584 83.2-33.472 16.64-21.312 20.672-49.856 11.904-84.864z" />
<glyph unicode="&#xe641;" glyph-name="eraser_click" d="M663.040 668.928c-15.040 15.040-35.136 23.36-56.448 23.36s-41.344-8.256-56.384-23.36l-98.368-98.432 207.424-207.488 98.432 98.368c31.040 31.104 31.040 81.728 0 112.896l-94.592 94.592zM268.736 387.52c-31.104-31.104-31.104-81.728 0-112.832l64.704-64.768h172.608l115.648 115.712-207.424 207.424-145.536-145.536zM512.384 957.12c-282.56 0-511.552-229.056-511.552-511.552s228.992-511.552 511.552-511.552c282.56 0 511.552 228.992 511.552 511.552s-228.992 511.552-511.552 511.552zM795.136 423.936l-268.288-268.16h-214.592l-33.664 33.664v0.32l-47.36 47.424c-51.712 51.84-51.712 136.128 0 187.84l281.408 281.344c25.024 25.088 58.368 38.912 93.888 38.912s68.864-13.824 93.888-38.912l94.656-94.592c51.712-51.776 51.712-136.064 0-187.84z" />
<glyph unicode="&#xe642;" glyph-name="fast_back_click2" d="M742.016 246.848v420.416l-210.24-210.176zM467.072 246.848v420.416l-210.24-210.176zM936.96 957.12h-849.92c-48.064 0-87.040-38.976-87.040-87.040v-849.984c0-48.064 38.976-87.040 87.040-87.040h849.92c48.064 0 87.040 38.976 87.040 87.040v849.984c0 48.064-38.976 87.040-87.040 87.040zM805.12 193.536c0-28.544-19.328-43.456-38.464-43.456-7.744 0-19.52 2.432-31.424 14.208l-205.12 205.12v-175.872c0-28.544-19.328-43.456-38.4-43.456-7.744 0-19.52 2.432-31.488 14.208l-254.336 254.336c-10.24 10.304-15.936 23.936-15.936 38.464s5.632 28.16 15.936 38.4l254.144 254.144c11.904 11.904 23.744 14.4 31.552 14.4 13.248 0 25.216-6.912 32.128-18.56 4.16-7.104 6.272-15.424 6.272-24.832v-175.936l204.992 204.928c11.904 11.904 23.744 14.4 31.552 14.4 19.136 0 38.464-14.912 38.464-43.392v-527.104z" />
<glyph unicode="&#xe643;" glyph-name="fast_forward_click2" d="M549.376 251.392l210.24 210.176-210.24 210.24zM274.368 251.392l210.24 210.176-210.24 210.24zM936.96 960h-849.984c-48.064 0-87.040-38.976-87.040-87.040v-849.984c0-48.064 38.976-87.040 87.040-87.040h849.984c48.064 0 87.040 38.976 87.040 87.040v849.984c0 48.064-38.976 87.040-87.040 87.040zM810.368 423.168l-254.144-254.144c-11.904-11.904-23.744-14.4-31.552-14.4-13.248 0-25.28 6.912-32.128 18.56-4.16 7.104-6.272 15.424-6.272 24.832v175.936l-204.992-204.928c-11.904-11.904-23.744-14.4-31.552-14.4-19.136 0-38.464 14.912-38.464 43.392v527.104c0 28.544 19.328 43.456 38.464 43.456 7.744 0 19.52-2.432 31.424-14.208l205.12-205.12v175.872c0 28.544 19.328 43.456 38.4 43.456 7.744 0 19.52-2.432 31.488-14.208l254.336-254.336c10.24-10.304 15.936-23.936 15.936-38.464s-5.632-28.16-15.936-38.4z" />
<glyph unicode="&#xe644;" glyph-name="graph_click" d="M770.752 586.56c0 28.096-22.848 50.88-50.88 50.88h-414.464c-28.096 0-50.88-22.848-50.88-50.88v-280.832c0-28.032 22.848-50.88 50.88-50.88h414.464c28.096 0 50.88 22.848 50.88 50.88v280.832zM512.384 960c-282.56 0-511.552-229.056-511.552-511.552s228.992-511.552 511.552-511.552c282.56 0 511.552 228.992 511.552 511.552s-228.992 511.552-511.552 511.552zM833.408 510.208v-204.416c0-62.592-50.944-113.536-113.536-113.536h-414.464c-62.592 0-113.536 50.944-113.536 113.536v280.832c0 62.592 50.944 113.536 113.536 113.536h414.464c62.592 0 113.536-50.944 113.536-113.536v-76.416z" />
<glyph unicode="&#xe645;" glyph-name="image_click" d="M770.56 579.072c0 28.032-22.848 50.88-50.88 50.88h-414.464c-28.096 0-50.88-22.848-50.88-50.88v-280.832c0-28.032 22.848-50.88 50.88-50.88h96.512l191.36 160.576c2.176 2.688 4.864 5.248 8 7.424 1.088 0.768 2.24 1.472 3.328 2.112 4.352 3.584 9.92 5.12 15.744 4.736 8.832 0.512 16.896-2.624 21.568-9.28 0.512-0.704 0.96-1.472 1.344-2.24l0.256 0.192 107.136-153.024c12.16 9.28 20.032 23.936 20.032 40.448v280.832zM384.832 439.616c-34.816 0-63.040 28.224-63.040 63.040s28.224 62.976 63.040 62.976c34.816 0 62.976-28.224 62.976-62.976s-28.224-63.040-62.976-63.040zM563.072 299.2l-61.824-51.84h178.432l-66.048 94.336zM512.384 957.12c-282.56 0-511.552-229.056-511.552-511.552s228.992-511.552 511.552-511.552c282.56 0 511.552 228.992 511.552 511.552s-228.992 511.552-511.552 511.552zM833.216 502.656v-204.416c0-62.592-50.944-113.536-113.536-113.536h-414.464c-62.592 0-113.536 50.944-113.536 113.536v280.832c0 62.592 50.944 113.536 113.536 113.536h414.464c62.592 0 113.536-50.944 113.536-113.536v-76.416z" />
<glyph unicode="&#xe646;" glyph-name="inf_click" d="M257.536 691.84h55.744v-51.456h-55.744v51.456zM257.536 475.072h55.744v-51.52h-55.744v51.52zM257.536 258.304h55.744v-51.456h-55.744v51.456zM483.264 258.304h285.568v-51.456h-285.568v51.456zM936.96 960h-849.984c-48.064 0-87.040-38.976-87.040-87.040v-849.984c0-48.064 38.976-87.040 87.040-87.040h849.984c48.064 0 87.040 38.976 87.040 87.040v849.984c0 48.064-38.976 87.040-87.040 87.040zM378.048 142.016h-185.216v180.928h185.216v-180.928zM378.048 358.912h-185.216v180.864h185.216v-180.864zM378.048 575.616h-185.216v180.992h185.216v-180.992zM830.528 142.016h-408.96v180.928h408.96v-180.928zM830.528 358.912h-408.96v180.864h408.96v-180.864zM830.528 575.616h-408.96v180.992h408.96v-180.992zM483.264 691.84h285.568v-51.456h-285.568v51.456zM483.264 475.072h285.568v-51.52h-285.568v51.52z" />
<glyph unicode="&#xe647;" glyph-name="iconfont-shu2" d="M934.4-64.768h-700.288c-63.936 0-107.456 109.824-107.456 109.824l0.512 73.216 34.432-2.24c75.52 0 73.344 75.456 73.344 75.456 0 73.216-70.784 75.52-70.784 75.52h-36.48l0.576 144.128h34.432c68.608 0 73.344 70.976 73.344 70.976 0 77.76-73.024 77.76-73.024 77.76l-34.24-0.128-2.24 144.192 34.752 2.176c75.52 0 73.984 73.28 73.984 73.28 0 66.368-72.128 73.216-72.128 73.216h-36.608v70.976c0 20.224 16.384 36.608 36.608 36.608h658.944c20.224 0 36.608-16.384 36.608-36.608l73.216-2.304c29.696 0 36.608-36.608 36.608-36.608v-915.072c0-27.52-34.24-34.368-34.24-34.368v0zM785.6 704h-475.904v-292.864h475.904v292.864zM896.576 877.888l-37.76 12.608v-808.768c0-20.224-16.384-36.608-36.608-36.608l-623.488 1.152c0-25.152 37.76-37.76 37.76-37.76h622.336c38.976 0 37.76 34.304 37.76 34.304v835.072zM401.216 630.784h292.864c10.112 0 18.304-8.128 18.304-18.304 0-10.112-8.192-18.304-18.304-18.304h-292.864c-10.176 0-18.304 8.192-18.304 18.304 0 10.176 8.128 18.304 18.304 18.304v0zM401.216 520.96h292.864c10.112 0 18.304-8.192 18.304-18.304s-8.192-18.304-18.304-18.304h-292.864c-10.176 0-18.304 8.192-18.304 18.304s8.128 18.304 18.304 18.304v0zM199.936 777.216c0-20.224-16.384-36.608-36.608-36.608h-73.216c-20.224 0-36.608 16.384-36.608 36.608s16.384 36.608 36.608 36.608h73.216c20.224 0 36.608-16.384 36.608-36.608v0zM90.112 520.96h73.216c20.224 0 36.608-16.384 36.608-36.608s-16.384-36.608-36.608-36.608h-73.216c-20.224 0-36.608 16.384-36.608 36.608s16.384 36.608 36.608 36.608v0zM90.112 228.096h73.216c20.224 0 36.608-16.384 36.608-36.608s-16.384-36.608-36.608-36.608h-73.216c-20.224 0-36.608 16.384-36.608 36.608s16.384 36.608 36.608 36.608v0z" />
<glyph unicode="&#xe648;" glyph-name="mp4_click" d="M552.512 699.648v-57.92c63.808-13.312 111.552-44.352 146.304-78.080-7.36 21.76-17.408 41.216-30.080 58.24-36.032 48.512-84.736 69.12-116.224 77.76zM474.496 312.384c-14.336 13.44-32.64 16.256-45.44 16.256-20.288 0-42.24-7.104-58.624-19.072-13.44-9.728-23.552-21.824-29.248-35.072-3.584-8.256-5.44-16.384-5.568-24.384-0.128-25.536 19.968-47.936 45.824-51.136 2.944-0.384 6.016-0.576 9.216-0.576 18.88 0 39.616 6.4 56.896 17.664 9.792 6.336 18.112 13.888 24 21.696 5.184 6.848 9.536 14.848 12.672 23.168 5.312 14.272 8 34.816-9.6 51.456zM936.96 960h-849.984c-48.064 0-87.040-38.976-87.040-87.040v-849.984c0-48.064 38.976-87.040 87.040-87.040h849.984c48.064 0 87.040 38.976 87.040 87.040v849.984c0 48.064-38.976 87.040-87.040 87.040zM753.152 445.12c-0.32-0.896-0.576-1.792-0.896-2.688l0.832-9.28-2.816 4.16c-5.056-12.416-10.432-17.856-13.376-20.032l-19.456-14.336-7.104 23.36c-0.064 0.256-9.28 29.12-35.584 61.888-30.656 38.144-70.656 65.6-119.232 81.856v-295.616l-0.064-0.704c-1.088-13.76-3.904-26.752-8.384-38.656-5.12-14.016-12.672-27.968-21.952-40.448l-0.064-0.128c-10.752-14.272-25.024-27.264-41.216-37.76-27.968-18.176-60.864-28.224-92.48-28.224-5.888 0-11.712 0.32-17.408 1.024-61.632 7.68-107.584 60.16-106.944 122.176 0.128 17.472 3.904 34.88 11.2 51.648 10.624 24.512 28.48 46.464 51.712 63.296 27.52 19.968 62.848 31.424 96.96 31.424 19.584 0 38.144-3.712 54.912-10.88v379.328l37.312-0.384c25.92-0.32 59.264-7.36 89.088-18.944 41.664-16.128 77.632-40.96 104.064-71.936 21.12-24.704 36.544-52.608 45.952-82.816 4.48-14.528 7.040-28.864 7.936-43.904 2.368-34.176-2.048-68.992-13.056-103.424z" />
<glyph unicode="&#xe649;" glyph-name="pen_click" d="M458.048 480.512l0.192-0.192-75.648-75.52 102.272-102.272 89.536 89.344-0.192 0.192 140.48 140.16-102.336 102.336zM305.088 224.96l131.2 35.648-95.616 95.616zM514.432 959.104c-282.56 0-511.552-229.056-511.552-511.552 0-282.56 228.992-511.552 511.552-511.552s511.552 228.992 511.552 511.552c0 282.496-228.992 511.552-511.552 511.552zM823.424 553.92l-162.112-161.728 0.192-0.192-184.256-183.808-214.336-58.24c-2.304-0.64-4.672-0.96-7.040-0.96-7.040 0-13.824 2.752-18.944 7.808-6.72 6.848-9.408 16.704-6.848 26.048l58.048 214.464 83.328 83.2-0.192 0.192 263.040 262.464c15.616 15.616 36.416 23.296 58.048 23.296 24.896 0 50.752-10.24 70.784-30.272l53.376-53.44c37.44-37.376 40.512-95.232 6.912-128.768zM773.12 639.296v0l-53.376 53.44c-7.808 7.808-17.728 12.224-27.392 12.224-4.224 0-10.24-0.896-14.592-5.312l-20.032-19.968 102.336-102.336 20.032 19.968c4.352 4.352 5.312 10.368 5.312 14.592 0 9.6-4.48 19.52-12.224 27.264v0z" />
<glyph unicode="&#xe64a;" glyph-name="reduce_click" d="M240.832 478.208h542.4v-60.352h-542.4v60.352zM936.96 959.936h-849.984c-48.064 0-87.040-38.976-87.040-87.040v-849.92c0-48.064 38.976-87.040 87.040-87.040h849.984c48.064 0 87.040 38.976 87.040 87.040v849.92c0 48.064-38.976 87.040-87.040 87.040zM845.696 355.392h-667.328v185.28h667.328v-185.28z" />
<glyph unicode="&#xe64b;" glyph-name="text_click" d="M422.464 443.712h177.152l-88.576 189.952zM512.384 957.12c-282.56 0-511.552-229.056-511.552-511.552s228.992-511.552 511.552-511.552c282.56 0 511.552 228.992 511.552 511.552s-228.992 511.552-511.552 511.552zM752.768 190.848c-16-7.488-34.176-2.432-40.576 11.264l-82.816 177.664h-236.8l-82.816-177.664c-6.4-13.696-24.512-18.688-40.576-11.264s-23.808 24.64-17.472 38.272l230.912 495.232c4.8 10.24 16.128 15.616 28.288 14.592 12.16 1.088 23.552-4.288 28.288-14.592l230.912-495.232c6.4-13.696-1.408-30.848-17.472-38.272z" />
<glyph unicode="&#xe64c;" glyph-name="zoom_click" d="M542.144 719.296h-60.288v-241.024h-241.024v-60.416h241.024v-241.088h60.288v241.088h241.024v60.416h-241.024zM936.96 960h-849.92c-48.064 0-87.040-38.976-87.040-87.040v-849.984c0-48.064 38.976-87.040 87.040-87.040h849.92c48.064 0 87.040 38.976 87.040 87.040v849.984c0 48.064-38.976 87.040-87.040 87.040zM845.632 355.392h-241.088v-241.088h-185.216v241.088h-241.024v185.28h241.024v241.088h185.216v-241.088h241.088v-185.28z" />
<glyph unicode="&#xe64d;" glyph-name="fast_back" d="M936.96 960h-849.984c-48.064 0-87.040-38.976-87.040-87.040v-849.984c0-48.064 38.976-87.040 87.040-87.040h849.984c48.064 0 87.040 38.976 87.040 87.040v849.984c0 48.064-38.976 87.040-87.040 87.040zM960.576 23.040c0-12.992-10.56-23.552-23.552-23.552h-849.984c-12.992 0-23.552 10.56-23.552 23.552v849.984c0 12.992 10.56 23.552 23.552 23.552h849.984c12.992 0 23.552-10.56 23.552-23.552v-849.984zM825.856 755.008c-7.872 0-19.776-2.496-31.552-14.464l-204.928-204.864v175.872c0 9.536-2.112 17.92-6.336 25.024-6.912 11.584-18.944 18.432-32.128 18.432-7.872 0-19.776-2.496-31.552-14.464l-204.992-204.928v164.416c0 30.080-24.448 54.464-54.464 54.464h-45.76c-30.080 0-54.592-24.448-54.592-54.464v-504.128c0-30.080 24.512-54.592 54.592-54.592h45.76c30.016 0 54.464 24.448 54.464 54.592v164.416l204.928-204.928c11.776-11.904 23.68-14.4 31.616-14.4 19.136 0 38.464 14.912 38.464 43.456v175.872l204.928-204.928c11.776-11.904 23.68-14.4 31.552-14.4 19.136 0 38.528 14.912 38.528 43.456v527.040c0 28.544-19.392 43.456-38.528 43.456zM251.264 204.544h-28.544v486.784h28.544v-486.784zM526.208 237.76l-210.176 210.24 210.176 210.24v-420.48zM801.216 237.76l-210.24 210.24 210.24 210.24v-420.48z" />
<glyph unicode="&#xe64e;" glyph-name="fast_forward" d="M936.96 960h-849.984c-48.064 0-87.040-38.976-87.040-87.040v-849.984c0-48.064 38.976-87.040 87.040-87.040h849.984c48.064 0 87.040 38.976 87.040 87.040v849.984c0 48.064-38.976 87.040-87.040 87.040zM960.576 23.040c0-12.992-10.56-23.552-23.552-23.552h-849.984c-12.992 0-23.552 10.56-23.552 23.552v849.984c0 12.992 10.56 23.552 23.552 23.552h849.984c12.992 0 23.552-10.56 23.552-23.552v-849.984zM809.792 754.624h-45.76c-30.016 0-54.464-24.448-54.464-54.592v-164.416l-204.928 204.928c-11.776 11.904-23.68 14.4-31.616 14.4-19.136 0-38.464-14.912-38.464-43.456v-175.872l-204.928 204.928c-11.776 11.904-23.68 14.4-31.552 14.4-19.136 0-38.528-14.912-38.528-43.456v-527.040c0-28.544 19.392-43.456 38.528-43.456 7.872 0 19.776 2.496 31.552 14.464l204.928 204.864v-175.872c0-9.536 2.112-17.92 6.336-25.024 6.912-11.584 18.944-18.432 32.128-18.432 7.872 0 19.776 2.496 31.552 14.464l204.992 204.928v-164.416c0-30.080 24.448-54.464 54.464-54.464h45.76c30.080 0 54.592 24.448 54.592 54.464v504.128c0 30.080-24.512 54.592-54.592 54.592zM222.784 237.76v420.48l210.24-210.24-210.24-210.24zM497.792 237.76v420.48l210.176-210.24-210.176-210.24zM801.216 204.672h-28.544v486.784h28.544v-486.784z" />
<glyph unicode="&#xe64f;" glyph-name="back" d="M512.256 960c-282.624 0-511.744-229.12-511.744-511.744s229.12-511.744 511.744-511.744 511.744 229.12 511.744 511.744c0 282.624-229.12 511.744-511.744 511.744zM828.48 132.032c-41.088-41.088-88.96-73.344-142.208-95.872-55.104-23.296-113.664-35.136-174.080-35.136s-118.976 11.84-174.080 35.136c-53.248 22.528-101.12 54.784-142.208 95.872s-73.344 88.96-95.872 142.208c-23.296 55.104-35.136 113.664-35.136 174.080s11.84 118.976 35.136 174.080c22.528 53.248 54.784 101.056 95.872 142.208s88.96 73.344 142.208 95.872c55.104 23.296 113.664 35.136 174.080 35.136s118.976-11.84 174.080-35.136c53.248-22.528 101.12-54.784 142.208-95.872s73.344-88.96 95.872-142.208c23.296-55.104 35.136-113.664 35.136-174.080s-11.84-118.976-35.136-174.080c-22.528-53.248-54.784-101.12-95.872-142.208zM758.272 423.808c-33.92 53.824-66.496 89.216-105.728 114.816-32 20.864-67.968 35.2-117.696 46.4v68.992c0 20.864-12.544 39.232-31.936 46.848-5.888 2.304-12.096 3.52-18.432 3.52-13.056 0-25.664-5.12-35.008-14.144l-239.232-180.672-1.664-1.792c-17.728-19.264-17.664-49.344 0.192-68.48l1.664-1.792 240.064-178.048c9.28-8.896 21.824-13.952 34.752-13.952 6.4 0 12.608 1.152 18.432 3.52 19.392 7.616 31.872 26.048 31.872 46.848v81.344c120.256-20.288 184.64-128.128 202.432-162.752 1.408-2.816 3.072-5.952 6.656-9.28l0.448-0.384c9.216-8.128 21.056-12.608 33.344-12.608 8.64 0 17.216 2.24 24.704 6.528 18.688 10.56 28.672 31.808 24.768 52.864-0.64 3.52-16.512 87.552-69.888 172.288zM510.272 433.792l-28.096 1.344v-132.224l-230.208 170.688 229.312 173.184v-105.728l21.696-4.224c105.344-20.48 154.368-53.568 209.92-141.696 30.336-48.128 47.296-96.704 55.68-125.888-37.184 58.752-120 157.888-258.24 164.544z" />
<glyph unicode="&#xe650;" glyph-name="cancel" d="M511.744 959.424c-282.624 0-511.744-229.12-511.744-511.744s229.12-511.744 511.744-511.744c282.624 0 511.744 229.12 511.744 511.744s-229.12 511.744-511.744 511.744zM827.968 131.456c-41.088-41.088-88.96-73.344-142.208-95.872-55.104-23.296-113.664-35.136-174.080-35.136s-118.976 11.84-174.080 35.136c-53.248 22.528-101.12 54.784-142.208 95.872s-73.344 88.96-95.872 142.208c-23.296 55.104-35.136 113.664-35.136 174.080s11.84 118.976 35.136 174.080c22.528 53.248 54.784 101.12 95.872 142.208s88.96 73.344 142.208 95.872c55.104 23.296 113.664 35.136 174.080 35.136s118.976-11.84 174.080-35.136c53.248-22.528 101.12-54.784 142.208-95.872s73.344-88.96 95.872-142.208c23.296-55.104 35.136-113.664 35.136-174.080s-11.84-118.976-35.136-174.080c-22.528-53.248-54.784-101.12-95.872-142.208zM759.872 676.736h-104.384v15.488c0 42.432-34.432 76.992-76.8 76.992h-142.080c-42.368 0-76.864-34.56-76.864-76.992v-15.488h-110.976c-15.040 0-27.264-12.16-27.264-27.072s12.224-27.136 27.264-27.136h32.128l40.064-413.632c0.32-45.952 37.888-83.264 83.968-83.264h198.784c22.592 0 43.776 8.832 59.776 24.832 15.424 15.488 24 35.712 24.128 57.024l40.256 415.104h32.064c14.976 0 27.136 12.16 27.136 27.136s-12.16 27.072-27.136 27.072zM406.528 690.304c0 18.752 15.232 33.984 33.984 33.984h134.272c18.752 0 33.984-15.232 33.984-33.984v-13.632h-202.24v13.632zM633.472 210.688l-0.064-0.64v-0.64c0-16.32-13.312-29.632-29.696-29.632h-198.784c-16.64 0-29.632 13.568-29.632 30.976v0.64l-39.872 411.072h337.856l-39.808-411.776zM433.28 224.896c14.976 0 27.2 12.16 27.2 27.072v0.32l-14.272 298.24c-0.192 14.848-12.288 26.88-27.072 26.88-14.976 0-27.2-12.224-27.2-27.264v-0.32l14.272-298.24c0.192-14.784 12.288-26.752 27.072-26.752zM504.32 224.896c14.976 0 27.2 12.16 27.2 27.072v298.176c0 15.040-12.224 27.264-27.2 27.264s-27.136-12.224-27.136-27.264v-298.176c0-14.912 12.16-27.072 27.136-27.072zM575.36 224.896c14.848 0 26.944 11.968 27.136 26.752l14.144 297.92v0.64c0 15.040-12.16 27.264-27.136 27.264-14.848 0-26.944-12.032-27.136-26.88l-14.272-297.92v-0.64c0-14.912 12.224-27.072 27.264-27.072z" />
<glyph unicode="&#xe651;" glyph-name="color" d="M512.256 960c-282.624 0-511.744-229.12-511.744-511.744s229.12-511.744 511.744-511.744 511.744 229.12 511.744 511.744c0 282.624-229.12 511.744-511.744 511.744zM828.48 132.032c-41.088-41.088-88.96-73.344-142.208-95.872-55.104-23.296-113.664-35.136-174.080-35.136s-118.976 11.84-174.080 35.136c-53.248 22.528-101.12 54.784-142.208 95.872s-73.344 88.96-95.872 142.208c-23.296 55.104-35.136 113.664-35.136 174.080s11.84 118.976 35.136 174.080c22.528 53.248 54.784 101.12 95.872 142.208s88.96 73.344 142.208 95.872c55.104 23.296 113.664 35.136 174.080 35.136s118.976-11.84 174.080-35.136c53.248-22.528 101.12-54.784 142.208-95.872s73.344-88.96 95.872-142.208c23.296-55.104 35.136-113.664 35.136-174.080s-11.84-118.976-35.136-174.080c-22.528-53.248-54.784-101.12-95.872-142.208zM727.808 450.944c-3.008 0-5.376-0.064-6.976-0.128-0.384 0-0.704 0-0.96 0-5.504 0-10.24-1.344-14.784-2.624-3.456-0.96-7.36-2.048-10.176-2.048-0.576 0-1.024 0-1.472 0.128-2.432 4.928-2.944 8.064-3.072 9.6 0.896 0.96 1.6 1.984 2.368 3.52 1.472 1.792 6.912 7.744 19.584 16.896 19.904 11.968 33.408 29.312 39.040 50.112 4.864 17.728 4.032 37.76-2.304 59.584-0.448 1.6-1.088 3.136-1.792 4.544-8.384 16.832-33.088 60.032-80.832 98.176-55.424 44.224-122.112 66.688-198.080 66.688-14.016 0-28.48-0.768-43.072-2.368-40.192-4.288-76.16-15.168-106.88-32.384-28.16-15.808-52.096-36.992-71.040-62.912-51.904-70.976-57.152-163.712-44.608-227.648 1.984-34.24 29.12-101.568 77.184-162.816 27.2-34.752 57.408-62.784 89.792-83.392 38.976-24.832 80.128-38.208 122.368-39.744 15.936-1.856 31.808-2.816 47.296-2.816 70.016 0 134.080 18.88 185.344 54.592 48.96 34.048 83.776 82.496 98.048 136.448 0.064 0.128 0.064 0.256 0.128 0.384 8.704 35.008 4.736 63.552-11.904 84.864-17.088 21.888-45.888 33.472-83.2 33.472zM769.408 346.176c-23.872-89.536-116.224-149.696-229.952-149.696-13.696 0-27.84 0.832-41.984 2.56-0.768 0.064-1.6 0.128-2.368 0.192-77.568 2.432-136.128 56.832-171.648 102.080-45.12 57.536-65.216 115.584-65.536 132.544 0 1.728-0.192 3.392-0.576 5.056-10.24 50.048-7.296 128.896 34.624 186.24 30.592 41.856 77.44 66.368 139.2 72.96 12.608 1.344 25.088 2.048 37.184 2.048 150.016 0 214.464-105.28 228.352-132.032 8.576-31.936-6.272-40.576-13.44-44.8-0.768-0.448-1.472-0.896-2.176-1.408-19.392-13.888-28.8-24.256-33.152-30.144-11.584-12.672-21.888-40 0-77.44 1.152-1.984 2.56-3.84 4.224-5.504 11.648-11.776 26.432-17.984 42.752-17.984 10.496 0 19.328 2.496 25.152 4.16 0.704 0.192 1.536 0.448 2.176 0.576 0.128 0 0.192 0 0.32 0 1.28 0.064 3.072 0.128 5.248 0.128 19.136 0 33.6-4.48 39.68-12.224 6.976-8.96 4.928-25.152 1.92-37.248zM532.16 610.496c0-22.272-18.048-40.256-40.256-40.256s-40.256 18.048-40.256 40.256c0 22.272 18.048 40.256 40.256 40.256s40.256-18.048 40.256-40.256zM411.328 570.24c0-22.272-18.048-40.256-40.256-40.256s-40.256 18.048-40.256 40.256c0 22.272 18.048 40.256 40.256 40.256s40.256-18.048 40.256-40.256zM369.088 454.272c0-22.272-18.048-40.256-40.256-40.256s-40.256 18.048-40.256 40.256c0 22.272 18.048 40.256 40.256 40.256s40.256-18.048 40.256-40.256zM434.368 335.616c0-22.272-18.048-40.256-40.256-40.256s-40.256 18.048-40.256 40.256c0 22.272 18.048 40.256 40.256 40.256s40.256-18.048 40.256-40.256zM634.112 385.856c0-27.392-22.208-49.6-49.6-49.6s-49.6 22.208-49.6 49.6c0 27.392 22.208 49.6 49.6 49.6s49.6-22.208 49.6-49.6z" />
<glyph unicode="&#xe652;" glyph-name="eraser" d="M511.744 959.744c-282.624 0-511.744-229.12-511.744-511.744s229.12-511.744 511.744-511.744c282.624 0 511.744 229.12 511.744 511.744s-229.12 511.744-511.744 511.744zM827.968 131.776c-41.088-41.088-88.96-73.344-142.208-95.872-55.104-23.296-113.664-35.136-174.080-35.136s-118.976 11.84-174.080 35.136c-53.248 22.528-101.12 54.784-142.208 95.872s-73.344 88.96-95.872 142.208c-23.296 55.104-35.136 113.664-35.136 174.080s11.84 118.976 35.136 174.080c22.528 53.248 54.784 101.056 95.872 142.208s88.96 73.344 142.208 95.872c55.104 23.296 113.664 35.136 174.080 35.136s118.976-11.84 174.080-35.136c53.248-22.528 101.12-54.784 142.208-95.872s73.344-88.96 95.872-142.208c23.296-55.104 35.136-113.664 35.136-174.080s-11.84-118.976-35.136-174.080c-22.528-53.248-54.784-101.12-95.872-142.208zM697.536 708.864c-25.024 25.088-58.368 38.912-93.888 38.912s-68.864-13.824-93.888-38.912l-281.408-281.344c-51.712-51.776-51.712-136 0-187.84l47.36-47.424v-0.32l33.664-33.664h214.592l25.6 25.664 9.152 9.088 233.536 233.472c51.712 51.776 51.712 136.064 0 187.84l-94.656 94.592zM503.104 212.416h-172.608l-64.704 64.768c-31.104 31.104-31.104 81.728 0 112.832l145.536 145.536 207.424-207.424-115.648-115.712zM754.688 463.936l-98.432-98.368-207.424 207.488 98.432 98.432c15.040 15.040 35.072 23.36 56.384 23.36s41.408-8.32 56.448-23.36l94.592-94.592c31.040-31.104 31.040-81.728 0-112.896z" />
<glyph unicode="&#xe653;" glyph-name="expand" d="M559.936 563.2l156.864 156.352h-484.096v-482.624l156.736 156.288 247.552-246.784 170.432 169.984-247.552 246.784zM637.056 239.552l-247.552 246.784-90.752-90.496v257.792h258.56l-90.688-90.432 247.552-246.784-77.056-76.864z" />
</font>
</defs>
</svg>
